<?xml version="1.0" encoding="UTF-8" standalone="no"?>
<!DOCTYPE svg PUBLIC "-//W3C//DTD SVG 1.1//EN"
 "http://www.w3.org/Graphics/SVG/1.1/DTD/svg11.dtd">
<!-- Generated by graphviz version 2.38.0 (20140413.2041)
 -->
<!-- Title: /Users/mathias/workspace/moose/examples/ex20_user_objects/ex20.i Pages: 1 -->
<svg width="1123pt" height="592pt"
 viewBox="0.00 0.00 1122.50 592.00" xmlns="http://www.w3.org/2000/svg" xmlns:xlink="http://www.w3.org/1999/xlink">
<g id="graph0" class="graph" transform="scale(1 1) rotate(0) translate(0 592)">
<title>/Users/mathias/workspace/moose/examples/ex20_user_objects/ex20.i</title>
<polygon fill="white" stroke="none" points="0,-0 0,-592 1122.5,-592 1122.5,-0 0,-0"/>
<g id="clust1" class="cluster"><title>cluster_ex20_i</title>
<polygon fill="none" stroke="black" points="8,-8 8,-584 1114.5,-584 1114.5,-8 8,-8"/>
</g>
<g id="clust2" class="cluster"><title>cluster_UserObjects</title>
<polygon fill="none" stroke="black" points="480.5,-54 480.5,-172 673.5,-172 673.5,-54 480.5,-54"/>
</g>
<g id="clust3" class="cluster"><title>cluster_Kernels</title>
<polygon fill="none" stroke="black" points="487.5,-180 487.5,-348 666.5,-348 666.5,-180 487.5,-180"/>
</g>
<g id="clust4" class="cluster"><title>cluster_Outputs</title>
<polygon fill="none" stroke="black" points="16,-414 16,-576 314,-576 314,-414 16,-414"/>
</g>
<g id="clust5" class="cluster"><title>cluster_Variables</title>
<polygon fill="none" stroke="black" points="84.5,-288 84.5,-406 245.5,-406 245.5,-288 84.5,-288"/>
</g>
<g id="clust6" class="cluster"><title>cluster_Materials</title>
<polygon fill="none" stroke="black" points="837.5,-369 837.5,-479 1106.5,-479 1106.5,-369 837.5,-369"/>
</g>
<g id="clust7" class="cluster"><title>cluster_BCs</title>
<polygon fill="none" stroke="black" points="502.5,-356 502.5,-576 651.5,-576 651.5,-356 502.5,-356"/>
</g>
<!-- global_root_ex20_i -->
<g id="node1" class="node"><title>global_root_ex20_i</title>
<polygon fill="gray" stroke="none" points="141,-247 141,-265 189,-265 189,-247 141,-247"/>
<text text-anchor="start" x="141.867" y="-252.4" font-family="Times,serif" font-weight="bold" font-size="14.00">ex20_i </text>
</g>
<!-- global_root_ex20_i_UserObjects -->
<g id="node2" class="node"><title>global_root_ex20_i_UserObjects</title>
<polygon fill="gray" stroke="none" points="537,-137 537,-155 618,-155 618,-137 537,-137"/>
<text text-anchor="start" x="538.826" y="-142.4" font-family="Times,serif" font-weight="bold" font-size="14.00">UserObjects </text>
</g>
<!-- global_root_ex20_i_UserObjects_bav -->
<g id="node3" class="node"><title>global_root_ex20_i_UserObjects_bav</title>
<polygon fill="none" stroke="black" points="665.5,-106 492.5,-106 488.5,-102 488.5,-62 661.5,-62 665.5,-66 665.5,-106"/>
<polyline fill="none" stroke="black" points="661.5,-102 488.5,-102 "/>
<polyline fill="none" stroke="black" points="661.5,-102 661.5,-62 "/>
<polyline fill="none" stroke="black" points="661.5,-102 665.5,-106 "/>
<polygon fill="gray" stroke="none" points="497,-84 497,-102 658,-102 658,-84 497,-84"/>
<text text-anchor="start" x="500.147" y="-89.4" font-family="Times,serif" font-weight="bold" font-size="14.00">bav </text>
<text text-anchor="start" x="528.522" y="-89.4" font-family="Times,serif" font-size="14.00">: BlockAverageValue</text>
<text text-anchor="start" x="497.625" y="-70.4" font-family="Times,serif" font-size="14.00">execute_on</text>
<text text-anchor="start" x="562.553" y="-70.4" font-family="Times,serif" font-size="14.00">=</text>
<text text-anchor="start" x="571.729" y="-70.4" font-family="Times,serif" font-size="14.00">timestep_begin</text>
</g>
<!-- global_root_ex20_i_Materials_badm -->
<g id="node13" class="node"><title>global_root_ex20_i_Materials_badm</title>
<polygon fill="none" stroke="black" points="1098.5,-413 849.5,-413 845.5,-409 845.5,-377 1094.5,-377 1098.5,-381 1098.5,-413"/>
<polyline fill="none" stroke="black" points="1094.5,-409 845.5,-409 "/>
<polyline fill="none" stroke="black" points="1094.5,-409 1094.5,-377 "/>
<polyline fill="none" stroke="black" points="1094.5,-409 1098.5,-413 "/>
<polygon fill="gray" stroke="none" points="854,-386 854,-404 1091,-404 1091,-386 854,-386"/>
<text text-anchor="start" x="855.878" y="-391.4" font-family="Times,serif" font-weight="bold" font-size="14.00">badm </text>
<text text-anchor="start" x="895.144" y="-391.4" font-family="Times,serif" font-size="14.00">: BlockAverageDiffusionMaterial</text>
</g>
<!-- global_root_ex20_i_UserObjects_bav&#45;&gt;global_root_ex20_i_Materials_badm -->
<g id="edge4" class="edge"><title>global_root_ex20_i_UserObjects_bav&#45;&gt;global_root_ex20_i_Materials_badm</title>
<path fill="none" stroke="#808080" d="M662.5,-106.427C662.5,-176.863 662.5,-389 662.5,-389 662.5,-389 835.221,-389 835.221,-389"/>
<polygon fill="#808080" stroke="#808080" points="835.222,-392.5 845.221,-389 835.221,-385.5 835.222,-392.5"/>
<text text-anchor="middle" x="772.144" y="-376.4" font-family="Times,serif" font-size="14.00" fill="#808080">block_average_userobject</text>
</g>
<!-- global_root_ex20_i_Kernels -->
<g id="node4" class="node"><title>global_root_ex20_i_Kernels</title>
<polygon fill="gray" stroke="none" points="550,-313 550,-331 604,-331 604,-313 550,-313"/>
<text text-anchor="start" x="551.154" y="-318.4" font-family="Times,serif" font-weight="bold" font-size="14.00">Kernels </text>
</g>
<!-- global_root_ex20_i_Kernels_diff -->
<g id="node5" class="node"><title>global_root_ex20_i_Kernels_diff</title>
<polygon fill="none" stroke="black" points="658.5,-282 499.5,-282 495.5,-278 495.5,-246 654.5,-246 658.5,-250 658.5,-282"/>
<polyline fill="none" stroke="black" points="654.5,-278 495.5,-278 "/>
<polyline fill="none" stroke="black" points="654.5,-278 654.5,-246 "/>
<polyline fill="none" stroke="black" points="654.5,-278 658.5,-282 "/>
<polygon fill="gray" stroke="none" points="504,-255 504,-273 651,-273 651,-255 504,-255"/>
<text text-anchor="start" x="505.58" y="-260.4" font-family="Times,serif" font-weight="bold" font-size="14.00">diff </text>
<text text-anchor="start" x="533.952" y="-260.4" font-family="Times,serif" font-size="14.00">: ExampleDiffusion</text>
</g>
<!-- global_root_ex20_i_Kernels_td -->
<g id="node6" class="node"><title>global_root_ex20_i_Kernels_td</title>
<polygon fill="none" stroke="black" points="646.5,-224 511.5,-224 507.5,-220 507.5,-188 642.5,-188 646.5,-192 646.5,-224"/>
<polyline fill="none" stroke="black" points="642.5,-220 507.5,-220 "/>
<polyline fill="none" stroke="black" points="642.5,-220 642.5,-188 "/>
<polyline fill="none" stroke="black" points="642.5,-220 646.5,-224 "/>
<polygon fill="gray" stroke="none" points="516,-197 516,-215 639,-215 639,-197 516,-197"/>
<text text-anchor="start" x="517.633" y="-202.4" font-family="Times,serif" font-weight="bold" font-size="14.00">td </text>
<text text-anchor="start" x="536.684" y="-202.4" font-family="Times,serif" font-size="14.00">: TimeDerivative</text>
</g>
<!-- global_root_ex20_i_Outputs -->
<g id="node7" class="node"><title>global_root_ex20_i_Outputs</title>
<polygon fill="gray" stroke="none" points="76,-546 76,-564 255,-564 255,-546 76,-546"/>
<text text-anchor="start" x="139.254" y="-551.4" font-family="Times,serif" font-weight="bold" font-size="14.00">Outputs </text>
<text text-anchor="start" x="76.6094" y="-532.4" font-family="Times,serif" font-size="14.00">output_on</text>
<text text-anchor="start" x="134.553" y="-532.4" font-family="Times,serif" font-size="14.00">=</text>
<text text-anchor="start" x="143.591" y="-532.4" font-family="Times,serif" font-size="14.00">initial timestep_end</text>
<text text-anchor="start" x="85.1704" y="-514.4" font-family="Times,serif" font-size="14.00">exodus</text>
<text text-anchor="start" x="134.553" y="-514.4" font-family="Times,serif" font-size="14.00">=</text>
<text text-anchor="start" x="188.117" y="-514.4" font-family="Times,serif" font-size="14.00">true</text>
</g>
<!-- global_root_ex20_i_Outputs_console -->
<g id="node8" class="node"><title>global_root_ex20_i_Outputs_console</title>
<polygon fill="none" stroke="black" points="306,-484 28,-484 24,-480 24,-422 302,-422 306,-426 306,-484"/>
<polyline fill="none" stroke="black" points="302,-480 24,-480 "/>
<polyline fill="none" stroke="black" points="302,-480 302,-422 "/>
<polyline fill="none" stroke="black" points="302,-480 306,-484 "/>
<polygon fill="gray" stroke="none" points="32,-462 32,-480 298,-480 298,-462 32,-462"/>
<text text-anchor="start" x="110.569" y="-467.4" font-family="Times,serif" font-weight="bold" font-size="14.00">console </text>
<text text-anchor="start" x="161.494" y="-467.4" font-family="Times,serif" font-size="14.00">: Console</text>
<text text-anchor="start" x="32.6094" y="-448.4" font-family="Times,serif" font-size="14.00">output_on</text>
<text text-anchor="start" x="90.5527" y="-448.4" font-family="Times,serif" font-size="14.00">=</text>
<text text-anchor="start" x="99.9484" y="-448.4" font-family="Times,serif" font-size="14.00">timestep_end failed nonlinear linea</text>
<text text-anchor="start" x="37.2868" y="-430.4" font-family="Times,serif" font-size="14.00">perf_log</text>
<text text-anchor="start" x="90.5527" y="-430.4" font-family="Times,serif" font-size="14.00">=</text>
<text text-anchor="start" x="187.617" y="-430.4" font-family="Times,serif" font-size="14.00">true</text>
</g>
<!-- global_root_ex20_i_Variables -->
<g id="node9" class="node"><title>global_root_ex20_i_Variables</title>
<polygon fill="gray" stroke="none" points="134,-371 134,-389 197,-389 197,-371 134,-371"/>
<text text-anchor="start" x="134.601" y="-376.4" font-family="Times,serif" font-weight="bold" font-size="14.00">Variables </text>
</g>
<!-- global_root_ex20_i_Variables_u -->
<g id="node10" class="node"><title>global_root_ex20_i_Variables_u</title>
<polygon fill="none" stroke="black" points="237.5,-340 96.5,-340 92.5,-336 92.5,-296 233.5,-296 237.5,-300 237.5,-340"/>
<polyline fill="none" stroke="black" points="233.5,-336 92.5,-336 "/>
<polyline fill="none" stroke="black" points="233.5,-336 233.5,-296 "/>
<polyline fill="none" stroke="black" points="233.5,-336 237.5,-340 "/>
<polygon fill="gray" stroke="none" points="101,-318 101,-336 230,-336 230,-318 101,-318"/>
<text text-anchor="start" x="157.92" y="-323.4" font-family="Times,serif" font-weight="bold" font-size="14.00">u </text>
<text text-anchor="start" x="101.723" y="-304.4" font-family="Times,serif" font-size="14.00">initial_condition</text>
<text text-anchor="start" x="195.553" y="-304.4" font-family="Times,serif" font-size="14.00">=</text>
<text text-anchor="start" x="204.75" y="-304.4" font-family="Times,serif" font-size="14.00">0.01</text>
</g>
<!-- global_root_ex20_i_Variables_u&#45;&gt;global_root_ex20_i_UserObjects_bav -->
<g id="edge1" class="edge"><title>global_root_ex20_i_Variables_u&#45;&gt;global_root_ex20_i_UserObjects_bav</title>
<path fill="none" stroke="#808080" d="M237.867,-300C334.094,-300 491.5,-300 491.5,-300 491.5,-300 491.5,-116.302 491.5,-116.302"/>
<polygon fill="#808080" stroke="#808080" points="495,-116.302 491.5,-106.302 488,-116.302 495,-116.302"/>
<text text-anchor="middle" x="468.957" y="-110.502" font-family="Times,serif" font-size="14.00" fill="#808080">variable</text>
</g>
<!-- global_root_ex20_i_Variables_u&#45;&gt;global_root_ex20_i_Kernels_diff -->
<g id="edge2" class="edge"><title>global_root_ex20_i_Variables_u&#45;&gt;global_root_ex20_i_Kernels_diff</title>
<path fill="none" stroke="#808080" d="M235.5,-295.661C235.5,-286.499 235.5,-278 235.5,-278 235.5,-278 485.202,-278 485.202,-278"/>
<polygon fill="#808080" stroke="#808080" points="485.202,-281.5 495.202,-278 485.202,-274.5 485.202,-281.5"/>
<text text-anchor="middle" x="472.659" y="-265.4" font-family="Times,serif" font-size="14.00" fill="#808080">variable</text>
</g>
<!-- global_root_ex20_i_Variables_u&#45;&gt;global_root_ex20_i_Kernels_td -->
<g id="edge3" class="edge"><title>global_root_ex20_i_Variables_u&#45;&gt;global_root_ex20_i_Kernels_td</title>
<path fill="none" stroke="#808080" d="M232.5,-295.762C232.5,-266.848 232.5,-220 232.5,-220 232.5,-220 497.285,-220 497.285,-220"/>
<polygon fill="#808080" stroke="#808080" points="497.285,-223.5 507.285,-220 497.285,-216.5 497.285,-223.5"/>
<text text-anchor="middle" x="484.742" y="-207.4" font-family="Times,serif" font-size="14.00" fill="#808080">variable</text>
</g>
<!-- global_root_ex20_i_BCs_right -->
<g id="node16" class="node"><title>global_root_ex20_i_BCs_right</title>
<polygon fill="none" stroke="black" points="643.5,-510 514.5,-510 510.5,-506 510.5,-448 639.5,-448 643.5,-452 643.5,-510"/>
<polyline fill="none" stroke="black" points="639.5,-506 510.5,-506 "/>
<polyline fill="none" stroke="black" points="639.5,-506 639.5,-448 "/>
<polyline fill="none" stroke="black" points="639.5,-506 643.5,-510 "/>
<polygon fill="gray" stroke="none" points="519,-488 519,-506 636,-506 636,-488 519,-488"/>
<text text-anchor="start" x="519.957" y="-493.4" font-family="Times,serif" font-weight="bold" font-size="14.00">right </text>
<text text-anchor="start" x="554.56" y="-493.4" font-family="Times,serif" font-size="14.00">: DirichletBC</text>
<text text-anchor="start" x="519.562" y="-474.4" font-family="Times,serif" font-size="14.00">boundary</text>
<text text-anchor="start" x="573.553" y="-474.4" font-family="Times,serif" font-size="14.00">=</text>
<text text-anchor="start" x="582.558" y="-474.4" font-family="Times,serif" font-size="14.00">rightright</text>
<text text-anchor="start" x="530.84" y="-456.4" font-family="Times,serif" font-size="14.00">value</text>
<text text-anchor="start" x="573.553" y="-456.4" font-family="Times,serif" font-size="14.00">=</text>
<text text-anchor="start" x="605.5" y="-456.4" font-family="Times,serif" font-size="14.00">1</text>
</g>
<!-- global_root_ex20_i_Variables_u&#45;&gt;global_root_ex20_i_BCs_right -->
<g id="edge7" class="edge"><title>global_root_ex20_i_Variables_u&#45;&gt;global_root_ex20_i_BCs_right</title>
<path fill="none" stroke="#808080" d="M237.905,-328C334.684,-328 493.5,-328 493.5,-328 493.5,-328 493.5,-466 493.5,-466 493.5,-466 500.397,-466 500.397,-466"/>
<polygon fill="#808080" stroke="#808080" points="500.398,-469.5 510.397,-466 500.397,-462.5 500.398,-469.5"/>
<text text-anchor="middle" x="487.855" y="-453.4" font-family="Times,serif" font-size="14.00" fill="#808080">variable</text>
</g>
<!-- global_root_ex20_i_BCs_left -->
<g id="node17" class="node"><title>global_root_ex20_i_BCs_left</title>
<polygon fill="none" stroke="black" points="639.5,-426 518.5,-426 514.5,-422 514.5,-364 635.5,-364 639.5,-368 639.5,-426"/>
<polyline fill="none" stroke="black" points="635.5,-422 514.5,-422 "/>
<polyline fill="none" stroke="black" points="635.5,-422 635.5,-364 "/>
<polyline fill="none" stroke="black" points="635.5,-422 639.5,-426 "/>
<polygon fill="gray" stroke="none" points="523,-404 523,-422 632,-422 632,-404 523,-404"/>
<text text-anchor="start" x="523.85" y="-409.4" font-family="Times,serif" font-weight="bold" font-size="14.00">left </text>
<text text-anchor="start" x="550.667" y="-409.4" font-family="Times,serif" font-size="14.00">: DirichletBC</text>
<text text-anchor="start" x="525.062" y="-390.4" font-family="Times,serif" font-size="14.00">boundary</text>
<text text-anchor="start" x="581.553" y="-390.4" font-family="Times,serif" font-size="14.00">=</text>
<text text-anchor="start" x="592.844" y="-390.4" font-family="Times,serif" font-size="14.00">leftleft</text>
<text text-anchor="start" x="536.34" y="-372.4" font-family="Times,serif" font-size="14.00">value</text>
<text text-anchor="start" x="581.553" y="-372.4" font-family="Times,serif" font-size="14.00">=</text>
<text text-anchor="start" x="608" y="-372.4" font-family="Times,serif" font-size="14.00">0</text>
</g>
<!-- global_root_ex20_i_Variables_u&#45;&gt;global_root_ex20_i_BCs_left -->
<g id="edge8" class="edge"><title>global_root_ex20_i_Variables_u&#45;&gt;global_root_ex20_i_BCs_left</title>
<path fill="none" stroke="#808080" d="M237.686,-316C343.765,-316 528.5,-316 528.5,-316 528.5,-316 528.5,-353.777 528.5,-353.777"/>
<polygon fill="#808080" stroke="#808080" points="525,-353.777 528.5,-363.777 532,-353.777 525,-353.777"/>
<text text-anchor="middle" x="505.957" y="-351.177" font-family="Times,serif" font-size="14.00" fill="#808080">variable</text>
</g>
<!-- global_root_ex20_i_Mesh -->
<g id="node11" class="node"><title>global_root_ex20_i_Mesh</title>
<polygon fill="none" stroke="black" points="229.5,-216 104.5,-216 100.5,-212 100.5,-154 225.5,-154 229.5,-158 229.5,-216"/>
<polyline fill="none" stroke="black" points="225.5,-212 100.5,-212 "/>
<polyline fill="none" stroke="black" points="225.5,-212 225.5,-154 "/>
<polyline fill="none" stroke="black" points="225.5,-212 229.5,-216 "/>
<polygon fill="gray" stroke="none" points="109,-194 109,-212 222,-212 222,-194 109,-194"/>
<text text-anchor="start" x="145.868" y="-199.4" font-family="Times,serif" font-weight="bold" font-size="14.00">Mesh </text>
<text text-anchor="start" x="109.609" y="-180.4" font-family="Times,serif" font-size="14.00">dim</text>
<text text-anchor="start" x="132.553" y="-180.4" font-family="Times,serif" font-size="14.00">=</text>
<text text-anchor="start" x="178" y="-180.4" font-family="Times,serif" font-size="14.00">2</text>
<text text-anchor="start" x="111.172" y="-162.4" font-family="Times,serif" font-size="14.00">file</text>
<text text-anchor="start" x="132.553" y="-162.4" font-family="Times,serif" font-size="14.00">=</text>
<text text-anchor="start" x="141.655" y="-162.4" font-family="Times,serif" font-size="14.00">two_squares.e</text>
</g>
<!-- global_root_ex20_i_Materials -->
<g id="node12" class="node"><title>global_root_ex20_i_Materials</title>
<polygon fill="gray" stroke="none" points="941,-444 941,-462 1004,-462 1004,-444 941,-444"/>
<text text-anchor="start" x="941.987" y="-449.4" font-family="Times,serif" font-weight="bold" font-size="14.00">Materials </text>
</g>
<!-- global_root_ex20_i_Executioner -->
<g id="node14" class="node"><title>global_root_ex20_i_Executioner</title>
<polygon fill="none" stroke="black" points="308.5,-132 25.5,-132 21.5,-128 21.5,-16 304.5,-16 308.5,-20 308.5,-132"/>
<polyline fill="none" stroke="black" points="304.5,-128 21.5,-128 "/>
<polyline fill="none" stroke="black" points="304.5,-128 304.5,-16 "/>
<polyline fill="none" stroke="black" points="304.5,-128 308.5,-132 "/>
<polygon fill="gray" stroke="none" points="30,-110 30,-128 301,-128 301,-110 30,-110"/>
<text text-anchor="start" x="95.1409" y="-115.4" font-family="Times,serif" font-weight="bold" font-size="14.00">Executioner </text>
<text text-anchor="start" x="170.94" y="-115.4" font-family="Times,serif" font-size="14.00">: Transient</text>
<text text-anchor="start" x="32.845" y="-96.4" font-family="Times,serif" font-size="14.00">petsc_options_value</text>
<text text-anchor="start" x="150.553" y="-96.4" font-family="Times,serif" font-size="14.00">=</text>
<text text-anchor="start" x="178.877" y="-96.4" font-family="Times,serif" font-size="14.00">hypre boomeramg</text>
<text text-anchor="start" x="60.0575" y="-78.4" font-family="Times,serif" font-size="14.00">num_steps</text>
<text text-anchor="start" x="150.553" y="-78.4" font-family="Times,serif" font-size="14.00">=</text>
<text text-anchor="start" x="223" y="-78.4" font-family="Times,serif" font-size="14.00">10</text>
<text text-anchor="start" x="59.6725" y="-60.4" font-family="Times,serif" font-size="14.00">solve_type</text>
<text text-anchor="start" x="150.553" y="-60.4" font-family="Times,serif" font-size="14.00">=</text>
<text text-anchor="start" x="209.388" y="-60.4" font-family="Times,serif" font-size="14.00">PJFNK</text>
<text text-anchor="start" x="84.5547" y="-42.4" font-family="Times,serif" font-size="14.00">dt</text>
<text text-anchor="start" x="150.553" y="-42.4" font-family="Times,serif" font-size="14.00">=</text>
<text text-anchor="start" x="226.5" y="-42.4" font-family="Times,serif" font-size="14.00">1</text>
<text text-anchor="start" x="30.8997" y="-24.4" font-family="Times,serif" font-size="14.00">petsc_options_iname</text>
<text text-anchor="start" x="150.553" y="-24.4" font-family="Times,serif" font-size="14.00">=</text>
<text text-anchor="start" x="159.832" y="-24.4" font-family="Times,serif" font-size="14.00">&#45;pc_type &#45;pc_hypre_type</text>
</g>
<!-- global_root_ex20_i_BCs -->
<g id="node15" class="node"><title>global_root_ex20_i_BCs</title>
<polygon fill="gray" stroke="none" points="559,-541 559,-559 595,-559 595,-541 559,-541"/>
<text text-anchor="start" x="560.861" y="-546.4" font-family="Times,serif" font-weight="bold" font-size="14.00">BCs </text>
</g>
<!-- global_root_ex20_i_BCs_right&#45;&gt;global_root_ex20_i_Materials_badm -->
<g id="edge6" class="edge"><title>global_root_ex20_i_BCs_right&#45;&gt;global_root_ex20_i_Materials_badm</title>
<path fill="none" stroke="#808080" d="M643.656,-459.5C735.434,-459.5 889.5,-459.5 889.5,-459.5 889.5,-459.5 889.5,-423.311 889.5,-423.311"/>
<polygon fill="#808080" stroke="#808080" points="893,-423.311 889.5,-413.311 886,-423.311 893,-423.311"/>
<text text-anchor="middle" x="873.947" y="-417.511" font-family="Times,serif" font-size="14.00" fill="#808080">block</text>
</g>
<!-- global_root_ex20_i_BCs_left&#45;&gt;global_root_ex20_i_Materials_badm -->
<g id="edge5" class="edge"><title>global_root_ex20_i_BCs_left&#45;&gt;global_root_ex20_i_Materials_badm</title>
<path fill="none" stroke="#808080" d="M639.589,-401C639.589,-401 835.124,-401 835.124,-401"/>
<polygon fill="#808080" stroke="#808080" points="835.124,-404.5 845.124,-401 835.124,-397.5 835.124,-404.5"/>
<text text-anchor="middle" x="829.571" y="-405.2" font-family="Times,serif" font-size="14.00" fill="#808080">block</text>
</g>
</g>
</svg>
