<?xml version="1.0" encoding="UTF-8" standalone="no"?>
<!DOCTYPE svg PUBLIC "-//W3C//DTD SVG 1.1//EN"
 "http://www.w3.org/Graphics/SVG/1.1/DTD/svg11.dtd">
<!-- Generated by graphviz version 2.38.0 (20140413.2041)
 -->
<!-- Title: ex10.i Pages: 1 -->
<svg width="1223pt" height="684pt"
 viewBox="0.00 0.00 1223.00 684.00" xmlns="http://www.w3.org/2000/svg" xmlns:xlink="http://www.w3.org/1999/xlink">
<g id="graph0" class="graph" transform="scale(1 1) rotate(0) translate(0 684)">
<title>ex10.i</title>
<polygon fill="white" stroke="none" points="0,-0 0,-684 1223,-684 1223,-0 0,-0"/>
<g id="clust1" class="cluster"><title>cluster_global_root_ex10_i</title>
<polygon fill="none" stroke="black" points="8,-8 8,-676 1223,-676 1223,-8 8,-8"/>
<polygon fill="#dddddd" stroke="none" points="591.5,-654 591.5,-672 639.5,-672 639.5,-654 591.5,-654"/>
<text text-anchor="start" x="592.367" y="-659.4" font-family="Times,serif" font-weight="bold" font-size="14.00">ex10_i </text>
</g>
<g id="clust2" class="cluster"><title>cluster_global_root_ex10_i_Kernels</title>
<polygon fill="none" stroke="#5457b0" points="97.5,-538 97.5,-642 232.5,-642 232.5,-538 97.5,-538"/>
<polygon fill="#dddddd" stroke="none" points="132,-620 132,-638 198,-638 198,-620 132,-620"/>
<text text-anchor="start" x="139.154" y="-625.4" font-family="Times,serif" font-weight="bold" font-size="14.00" fill="#5457b0">Kernels </text>
<text text-anchor="start" x="132.787" y="-606.4" font-family="Times,serif" font-size="14.00" fill="#5457b0">active</text>
<text text-anchor="start" x="167.553" y="-606.4" font-family="Times,serif" font-size="14.00" fill="#5457b0">=</text>
<text text-anchor="start" x="176.894" y="-606.4" font-family="Times,serif" font-size="14.00" fill="#5457b0">diff</text>
</g>
<g id="clust3" class="cluster"><title>cluster_global_root_ex10_i_Outputs</title>
<polygon fill="none" stroke="black" points="16,-390 16,-530 314,-530 314,-390 16,-390"/>
<polygon fill="#dddddd" stroke="none" points="123,-508 123,-526 207,-526 207,-508 123,-508"/>
<text text-anchor="start" x="138.754" y="-513.4" font-family="Times,serif" font-weight="bold" font-size="14.00">Outputs </text>
<text text-anchor="start" x="123.735" y="-494.4" font-family="Times,serif" font-size="14.00">file_base</text>
<text text-anchor="start" x="175.553" y="-494.4" font-family="Times,serif" font-size="14.00">=</text>
<text text-anchor="start" x="186.555" y="-494.4" font-family="Times,serif" font-size="14.00">out</text>
<text text-anchor="start" x="129.17" y="-476.4" font-family="Times,serif" font-size="14.00">exodus</text>
<text text-anchor="start" x="175.553" y="-476.4" font-family="Times,serif" font-size="14.00">=</text>
<text text-anchor="start" x="184.617" y="-476.4" font-family="Times,serif" font-size="14.00">true</text>
</g>
<g id="clust4" class="cluster"><title>cluster_global_root_ex10_i_Variables</title>
<polygon fill="none" stroke="#000cff" points="406,-260 406,-382 563,-382 563,-260 406,-260"/>
<polygon fill="#dddddd" stroke="none" points="439.5,-360 439.5,-378 530.5,-378 530.5,-360 439.5,-360"/>
<text text-anchor="start" x="454.101" y="-365.4" font-family="Times,serif" font-weight="bold" font-size="14.00" fill="#000cff">Variables </text>
<text text-anchor="start" x="440.288" y="-346.4" font-family="Times,serif" font-size="14.00" fill="#000cff">active</text>
<text text-anchor="start" x="475.053" y="-346.4" font-family="Times,serif" font-size="14.00" fill="#000cff">=</text>
<text text-anchor="start" x="484.065" y="-346.4" font-family="Times,serif" font-size="14.00" fill="#000cff">diffused</text>
</g>
<g id="clust5" class="cluster"><title>cluster_global_root_ex10_i_AuxKernels</title>
<polygon fill="none" stroke="#5457b0" points="663,-227 663,-469 912,-469 912,-227 663,-227"/>
<polygon fill="#dddddd" stroke="none" points="671.5,-447 671.5,-465 904.5,-465 904.5,-447 671.5,-447"/>
<text text-anchor="start" x="750.101" y="-452.4" font-family="Times,serif" font-weight="bold" font-size="14.00" fill="#5457b0">AuxKernels </text>
<text text-anchor="start" x="672.288" y="-433.4" font-family="Times,serif" font-size="14.00" fill="#5457b0">active</text>
<text text-anchor="start" x="707.053" y="-433.4" font-family="Times,serif" font-size="14.00" fill="#5457b0">=</text>
<text text-anchor="start" x="716.115" y="-433.4" font-family="Times,serif" font-size="14.00" fill="#5457b0">nodal_example element_example</text>
</g>
<g id="clust6" class="cluster"><title>cluster_global_root_ex10_i_AuxVariables</title>
<polygon fill="none" stroke="#ff6500" points="1020,-254 1020,-460 1215,-460 1215,-254 1020,-254"/>
<polygon fill="#dddddd" stroke="none" points="1028.5,-438 1028.5,-456 1207.5,-456 1207.5,-438 1028.5,-438"/>
<text text-anchor="start" x="1075.05" y="-443.4" font-family="Times,serif" font-weight="bold" font-size="14.00" fill="#ff6500">AuxVariables </text>
<text text-anchor="start" x="1029.29" y="-424.4" font-family="Times,serif" font-size="14.00" fill="#ff6500">active</text>
<text text-anchor="start" x="1064.05" y="-424.4" font-family="Times,serif" font-size="14.00" fill="#ff6500">=</text>
<text text-anchor="start" x="1073.33" y="-424.4" font-family="Times,serif" font-size="14.00" fill="#ff6500">nodal_aux element_aux</text>
</g>
<g id="clust7" class="cluster"><title>cluster_global_root_ex10_i_BCs</title>
<polygon fill="none" stroke="#ff00b6" points="84,-140 84,-382 246,-382 246,-140 84,-140"/>
<polygon fill="#dddddd" stroke="none" points="112,-360 112,-378 219,-378 219,-360 112,-360"/>
<text text-anchor="start" x="149.361" y="-365.4" font-family="Times,serif" font-weight="bold" font-size="14.00" fill="#ff00b6">BCs </text>
<text text-anchor="start" x="112.787" y="-346.4" font-family="Times,serif" font-size="14.00" fill="#ff00b6">active</text>
<text text-anchor="start" x="147.553" y="-346.4" font-family="Times,serif" font-size="14.00" fill="#ff00b6">=</text>
<text text-anchor="start" x="156.969" y="-346.4" font-family="Times,serif" font-size="14.00" fill="#ff00b6">bottom top</text>
</g>
<!-- global_root_ex10_i_Executioner -->
<g id="node1" class="node"><title>global_root_ex10_i_Executioner</title>
<polygon fill="none" stroke="black" points="236.5,-126 97.5,-126 93.5,-122 93.5,-82 232.5,-82 236.5,-86 236.5,-126"/>
<polyline fill="none" stroke="black" points="232.5,-122 93.5,-122 "/>
<polyline fill="none" stroke="black" points="232.5,-122 232.5,-82 "/>
<polyline fill="none" stroke="black" points="232.5,-122 236.5,-126 "/>
<polygon fill="#dddddd" stroke="none" points="102,-104 102,-122 229,-122 229,-104 102,-104"/>
<text text-anchor="start" x="102.524" y="-109.4" font-family="Times,serif" font-weight="bold" font-size="14.00">Executioner </text>
<text text-anchor="start" x="178.323" y="-109.4" font-family="Times,serif" font-size="14.00">: Steady</text>
<text text-anchor="start" x="105.672" y="-90.4" font-family="Times,serif" font-size="14.00">solve_type</text>
<text text-anchor="start" x="172.053" y="-90.4" font-family="Times,serif" font-size="14.00">=</text>
<text text-anchor="start" x="184.888" y="-90.4" font-family="Times,serif" font-size="14.00">PJFNK</text>
</g>
<!-- global_root_ex10_i_Kernels_diff -->
<g id="node2" class="node"><title>global_root_ex10_i_Kernels_diff</title>
<polygon fill="none" stroke="#5457b0" points="224.5,-590 109.5,-590 105.5,-586 105.5,-546 220.5,-546 224.5,-550 224.5,-590"/>
<polyline fill="none" stroke="#5457b0" points="220.5,-586 105.5,-586 "/>
<polyline fill="none" stroke="#5457b0" points="220.5,-586 220.5,-546 "/>
<polyline fill="none" stroke="#5457b0" points="220.5,-586 224.5,-590 "/>
<polygon fill="#dddddd" stroke="none" points="114,-568 114,-586 217,-586 217,-568 114,-568"/>
<text text-anchor="start" x="118.461" y="-573.4" font-family="Times,serif" font-weight="bold" font-size="14.00" fill="#5457b0">diff </text>
<text text-anchor="start" x="146.834" y="-573.4" font-family="Times,serif" font-size="14.00" fill="#5457b0">: Diffusion</text>
<text text-anchor="start" x="114.957" y="-554.4" font-family="Times,serif" font-size="14.00" fill="#5457b0">variable</text>
<text text-anchor="start" x="161.553" y="-554.4" font-family="Times,serif" font-size="14.00" fill="#5457b0">=</text>
<text text-anchor="start" x="170.565" y="-554.4" font-family="Times,serif" font-size="14.00" fill="#5457b0">diffused</text>
</g>
<!-- global_root_ex10_i_Variables_diffused -->
<g id="node4" class="node"><title>global_root_ex10_i_Variables_diffused</title>
<polygon fill="none" stroke="#000cff" points="555,-330 418,-330 414,-326 414,-268 551,-268 555,-272 555,-330"/>
<polyline fill="none" stroke="#000cff" points="551,-326 414,-326 "/>
<polyline fill="none" stroke="#000cff" points="551,-326 551,-268 "/>
<polyline fill="none" stroke="#000cff" points="551,-326 555,-330 "/>
<polygon fill="#dddddd" stroke="none" points="422.5,-308 422.5,-326 547.5,-326 547.5,-308 422.5,-308"/>
<text text-anchor="start" x="457.984" y="-313.4" font-family="Times,serif" font-weight="bold" font-size="14.00" fill="#000cff">diffused </text>
<text text-anchor="start" x="426.732" y="-294.4" font-family="Times,serif" font-size="14.00" fill="#000cff">order</text>
<text text-anchor="start" x="461.053" y="-294.4" font-family="Times,serif" font-size="14.00" fill="#000cff">=</text>
<text text-anchor="start" x="489.442" y="-294.4" font-family="Times,serif" font-size="14.00" fill="#000cff">FIRST</text>
<text text-anchor="start" x="423.226" y="-276.4" font-family="Times,serif" font-size="14.00" fill="#000cff">family</text>
<text text-anchor="start" x="461.053" y="-276.4" font-family="Times,serif" font-size="14.00" fill="#000cff">=</text>
<text text-anchor="start" x="470.013" y="-276.4" font-family="Times,serif" font-size="14.00" fill="#000cff">LAGRANGE</text>
</g>
<!-- global_root_ex10_i_Kernels_diff&#45;&gt;global_root_ex10_i_Variables_diffused -->
<g id="edge1" class="edge"><title>global_root_ex10_i_Kernels_diff:variable_VALUE&#45;&gt;global_root_ex10_i_Variables_diffused</title>
<path fill="none" stroke="#808080" d="M218,-559C261.98,-559 277.614,-559.704 314,-535 387.426,-485.147 439.985,-392.351 465.679,-339.183"/>
<polygon fill="#808080" stroke="#808080" points="468.886,-340.587 470.015,-330.053 462.563,-337.584 468.886,-340.587"/>
</g>
<!-- global_root_ex10_i_Outputs_console -->
<g id="node3" class="node"><title>global_root_ex10_i_Outputs_console</title>
<polygon fill="none" stroke="black" points="306,-460 28,-460 24,-456 24,-398 302,-398 306,-402 306,-460"/>
<polyline fill="none" stroke="black" points="302,-456 24,-456 "/>
<polyline fill="none" stroke="black" points="302,-456 302,-398 "/>
<polyline fill="none" stroke="black" points="302,-456 306,-460 "/>
<polygon fill="#dddddd" stroke="none" points="32,-438 32,-456 298,-456 298,-438 32,-438"/>
<text text-anchor="start" x="110.569" y="-443.4" font-family="Times,serif" font-weight="bold" font-size="14.00">console </text>
<text text-anchor="start" x="161.494" y="-443.4" font-family="Times,serif" font-size="14.00">: Console</text>
<text text-anchor="start" x="32.6094" y="-424.4" font-family="Times,serif" font-size="14.00">output_on</text>
<text text-anchor="start" x="90.5527" y="-424.4" font-family="Times,serif" font-size="14.00">=</text>
<text text-anchor="start" x="99.9484" y="-424.4" font-family="Times,serif" font-size="14.00">timestep_end failed nonlinear linea</text>
<text text-anchor="start" x="37.2868" y="-406.4" font-family="Times,serif" font-size="14.00">perf_log</text>
<text text-anchor="start" x="90.5527" y="-406.4" font-family="Times,serif" font-size="14.00">=</text>
<text text-anchor="start" x="187.617" y="-406.4" font-family="Times,serif" font-size="14.00">true</text>
</g>
<!-- global_root_ex10_i_AuxKernels_nodal_example -->
<g id="node5" class="node"><title>global_root_ex10_i_AuxKernels_nodal_example</title>
<polygon fill="none" stroke="#5457b0" points="885.5,-417 692.5,-417 688.5,-413 688.5,-337 881.5,-337 885.5,-341 885.5,-417"/>
<polyline fill="none" stroke="#5457b0" points="881.5,-413 688.5,-413 "/>
<polyline fill="none" stroke="#5457b0" points="881.5,-413 881.5,-337 "/>
<polyline fill="none" stroke="#5457b0" points="881.5,-413 885.5,-417 "/>
<polygon fill="#dddddd" stroke="none" points="697,-395 697,-413 878,-413 878,-395 697,-395"/>
<text text-anchor="start" x="697.694" y="-400.4" font-family="Times,serif" font-weight="bold" font-size="14.00" fill="#5457b0">nodal_example </text>
<text text-anchor="start" x="791.385" y="-400.4" font-family="Times,serif" font-size="14.00" fill="#5457b0">: ExampleAux</text>
<text text-anchor="start" x="713.957" y="-381.4" font-family="Times,serif" font-size="14.00" fill="#5457b0">variable</text>
<text text-anchor="start" x="784.553" y="-381.4" font-family="Times,serif" font-size="14.00" fill="#5457b0">=</text>
<text text-anchor="start" x="810.34" y="-381.4" font-family="Times,serif" font-size="14.00" fill="#5457b0">nodal_aux</text>
<text text-anchor="start" x="721.34" y="-363.4" font-family="Times,serif" font-size="14.00" fill="#5457b0">value</text>
<text text-anchor="start" x="784.553" y="-363.4" font-family="Times,serif" font-size="14.00" fill="#5457b0">=</text>
<text text-anchor="start" x="830.75" y="-363.4" font-family="Times,serif" font-size="14.00" fill="#5457b0">3.0</text>
<text text-anchor="start" x="714.34" y="-345.4" font-family="Times,serif" font-size="14.00" fill="#5457b0">coupled</text>
<text text-anchor="start" x="784.553" y="-345.4" font-family="Times,serif" font-size="14.00" fill="#5457b0">=</text>
<text text-anchor="start" x="816.564" y="-345.4" font-family="Times,serif" font-size="14.00" fill="#5457b0">diffused</text>
</g>
<!-- global_root_ex10_i_Variables_diffused&#45;&gt;global_root_ex10_i_AuxKernels_nodal_example -->
<g id="edge3" class="edge"><title>global_root_ex10_i_Variables_diffused&#45;&gt;global_root_ex10_i_AuxKernels_nodal_example:coupled_PARAM</title>
<path fill="none" stroke="#808080" d="M555.128,-324.649C592.805,-336.456 640.747,-348.221 685.827,-349.817"/>
<polygon fill="#808080" stroke="#808080" points="685.939,-353.319 696,-350 686.065,-346.32 685.939,-353.319"/>
</g>
<!-- global_root_ex10_i_AuxKernels_element_example -->
<g id="node6" class="node"><title>global_root_ex10_i_AuxKernels_element_example</title>
<polygon fill="none" stroke="#5457b0" points="892,-315 686,-315 682,-311 682,-235 888,-235 892,-239 892,-315"/>
<polyline fill="none" stroke="#5457b0" points="888,-311 682,-311 "/>
<polyline fill="none" stroke="#5457b0" points="888,-311 888,-235 "/>
<polyline fill="none" stroke="#5457b0" points="888,-311 892,-315 "/>
<polygon fill="#dddddd" stroke="none" points="690,-293 690,-311 884,-311 884,-293 690,-293"/>
<text text-anchor="start" x="690.589" y="-298.4" font-family="Times,serif" font-weight="bold" font-size="14.00" fill="#5457b0">element_example </text>
<text text-anchor="start" x="797.49" y="-298.4" font-family="Times,serif" font-size="14.00" fill="#5457b0">: ExampleAux</text>
<text text-anchor="start" x="706.957" y="-279.4" font-family="Times,serif" font-size="14.00" fill="#5457b0">variable</text>
<text text-anchor="start" x="777.553" y="-279.4" font-family="Times,serif" font-size="14.00" fill="#5457b0">=</text>
<text text-anchor="start" x="803.235" y="-279.4" font-family="Times,serif" font-size="14.00" fill="#5457b0">element_aux</text>
<text text-anchor="start" x="714.34" y="-261.4" font-family="Times,serif" font-size="14.00" fill="#5457b0">value</text>
<text text-anchor="start" x="777.553" y="-261.4" font-family="Times,serif" font-size="14.00" fill="#5457b0">=</text>
<text text-anchor="start" x="830.25" y="-261.4" font-family="Times,serif" font-size="14.00" fill="#5457b0">4.0</text>
<text text-anchor="start" x="707.34" y="-243.4" font-family="Times,serif" font-size="14.00" fill="#5457b0">coupled</text>
<text text-anchor="start" x="777.553" y="-243.4" font-family="Times,serif" font-size="14.00" fill="#5457b0">=</text>
<text text-anchor="start" x="816.064" y="-243.4" font-family="Times,serif" font-size="14.00" fill="#5457b0">diffused</text>
</g>
<!-- global_root_ex10_i_Variables_diffused&#45;&gt;global_root_ex10_i_AuxKernels_element_example -->
<g id="edge5" class="edge"><title>global_root_ex10_i_Variables_diffused&#45;&gt;global_root_ex10_i_AuxKernels_element_example:coupled_PARAM</title>
<path fill="none" stroke="#808080" d="M555.061,-272.604C591.005,-261.083 636.171,-249.806 678.802,-248.196"/>
<polygon fill="#808080" stroke="#808080" points="679.069,-251.692 689,-248 678.935,-244.693 679.069,-251.692"/>
</g>
<!-- global_root_ex10_i_AuxVariables_nodal_aux -->
<g id="node9" class="node"><title>global_root_ex10_i_AuxVariables_nodal_aux</title>
<polygon fill="none" stroke="#ff6500" points="1188,-408 1051,-408 1047,-404 1047,-346 1184,-346 1188,-350 1188,-408"/>
<polyline fill="none" stroke="#ff6500" points="1184,-404 1047,-404 "/>
<polyline fill="none" stroke="#ff6500" points="1184,-404 1184,-346 "/>
<polyline fill="none" stroke="#ff6500" points="1184,-404 1188,-408 "/>
<polygon fill="#dddddd" stroke="none" points="1055.5,-386 1055.5,-404 1180.5,-404 1180.5,-386 1055.5,-386"/>
<text text-anchor="start" x="1084.76" y="-391.4" font-family="Times,serif" font-weight="bold" font-size="14.00" fill="#ff6500">nodal_aux </text>
<text text-anchor="start" x="1059.73" y="-372.4" font-family="Times,serif" font-size="14.00" fill="#ff6500">order</text>
<text text-anchor="start" x="1094.05" y="-372.4" font-family="Times,serif" font-size="14.00" fill="#ff6500">=</text>
<text text-anchor="start" x="1122.44" y="-372.4" font-family="Times,serif" font-size="14.00" fill="#ff6500">FIRST</text>
<text text-anchor="start" x="1056.23" y="-354.4" font-family="Times,serif" font-size="14.00" fill="#ff6500">family</text>
<text text-anchor="start" x="1094.05" y="-354.4" font-family="Times,serif" font-size="14.00" fill="#ff6500">=</text>
<text text-anchor="start" x="1103.01" y="-354.4" font-family="Times,serif" font-size="14.00" fill="#ff6500">LAGRANGE</text>
</g>
<!-- global_root_ex10_i_AuxKernels_nodal_example&#45;&gt;global_root_ex10_i_AuxVariables_nodal_aux -->
<g id="edge2" class="edge"><title>global_root_ex10_i_AuxKernels_nodal_example:variable_VALUE&#45;&gt;global_root_ex10_i_AuxVariables_nodal_aux</title>
<path fill="none" stroke="#808080" d="M879,-386C931.555,-386 990.604,-383.772 1036.68,-381.533"/>
<polygon fill="#808080" stroke="#808080" points="1037.08,-385.018 1046.9,-381.026 1036.74,-378.026 1037.08,-385.018"/>
</g>
<!-- global_root_ex10_i_AuxVariables_element_aux -->
<g id="node8" class="node"><title>global_root_ex10_i_AuxVariables_element_aux</title>
<polygon fill="none" stroke="#ff6500" points="1189,-324 1050,-324 1046,-320 1046,-262 1185,-262 1189,-266 1189,-324"/>
<polyline fill="none" stroke="#ff6500" points="1185,-320 1046,-320 "/>
<polyline fill="none" stroke="#ff6500" points="1185,-320 1185,-262 "/>
<polyline fill="none" stroke="#ff6500" points="1185,-320 1189,-324 "/>
<polygon fill="#dddddd" stroke="none" points="1054.5,-302 1054.5,-320 1181.5,-320 1181.5,-302 1054.5,-302"/>
<text text-anchor="start" x="1078.15" y="-307.4" font-family="Times,serif" font-weight="bold" font-size="14.00" fill="#ff6500">element_aux </text>
<text text-anchor="start" x="1058.73" y="-288.4" font-family="Times,serif" font-size="14.00" fill="#ff6500">order</text>
<text text-anchor="start" x="1093.05" y="-288.4" font-family="Times,serif" font-size="14.00" fill="#ff6500">=</text>
<text text-anchor="start" x="1104.17" y="-288.4" font-family="Times,serif" font-size="14.00" fill="#ff6500">CONSTANT</text>
<text text-anchor="start" x="1055.23" y="-270.4" font-family="Times,serif" font-size="14.00" fill="#ff6500">family</text>
<text text-anchor="start" x="1093.05" y="-270.4" font-family="Times,serif" font-size="14.00" fill="#ff6500">=</text>
<text text-anchor="start" x="1102.24" y="-270.4" font-family="Times,serif" font-size="14.00" fill="#ff6500">MONOMIAL</text>
</g>
<!-- global_root_ex10_i_AuxKernels_element_example&#45;&gt;global_root_ex10_i_AuxVariables_element_aux -->
<g id="edge4" class="edge"><title>global_root_ex10_i_AuxKernels_element_example:variable_VALUE&#45;&gt;global_root_ex10_i_AuxVariables_element_aux</title>
<path fill="none" stroke="#808080" d="M885,-284C935.095,-284 991.242,-286.13 1035.69,-288.318"/>
<polygon fill="#808080" stroke="#808080" points="1035.7,-291.823 1045.86,-288.829 1036.05,-284.831 1035.7,-291.823"/>
</g>
<!-- global_root_ex10_i_Mesh -->
<g id="node7" class="node"><title>global_root_ex10_i_Mesh</title>
<polygon fill="none" stroke="#0000ff" points="201.5,-60 132.5,-60 128.5,-56 128.5,-16 197.5,-16 201.5,-20 201.5,-60"/>
<polyline fill="none" stroke="#0000ff" points="197.5,-56 128.5,-56 "/>
<polyline fill="none" stroke="#0000ff" points="197.5,-56 197.5,-16 "/>
<polyline fill="none" stroke="#0000ff" points="197.5,-56 201.5,-60 "/>
<polygon fill="#dddddd" stroke="none" points="137,-38 137,-56 194,-56 194,-38 137,-38"/>
<text text-anchor="start" x="145.868" y="-43.4" font-family="Times,serif" font-weight="bold" font-size="14.00" fill="#0000ff">Mesh </text>
<text text-anchor="start" x="137.672" y="-24.4" font-family="Times,serif" font-size="14.00" fill="#0000ff">file</text>
<text text-anchor="start" x="157.553" y="-24.4" font-family="Times,serif" font-size="14.00" fill="#0000ff">=</text>
<text text-anchor="start" x="166.598" y="-24.4" font-family="Times,serif" font-size="14.00" fill="#0000ff">car.e</text>
</g>
<!-- global_root_ex10_i_BCs_top -->
<g id="node10" class="node"><title>global_root_ex10_i_BCs_top</title>
<polygon fill="none" stroke="#ff00b6" points="228,-330 106,-330 102,-326 102,-250 224,-250 228,-254 228,-330"/>
<polyline fill="none" stroke="#ff00b6" points="224,-326 102,-326 "/>
<polyline fill="none" stroke="#ff00b6" points="224,-326 224,-250 "/>
<polyline fill="none" stroke="#ff00b6" points="224,-326 228,-330 "/>
<polygon fill="#dddddd" stroke="none" points="110,-308 110,-326 220,-326 220,-308 110,-308"/>
<text text-anchor="start" x="111.733" y="-313.4" font-family="Times,serif" font-weight="bold" font-size="14.00" fill="#ff00b6">top </text>
<text text-anchor="start" x="137.784" y="-313.4" font-family="Times,serif" font-size="14.00" fill="#ff00b6">: DirichletBC</text>
<text text-anchor="start" x="114.457" y="-294.4" font-family="Times,serif" font-size="14.00" fill="#ff00b6">variable</text>
<text text-anchor="start" x="164.553" y="-294.4" font-family="Times,serif" font-size="14.00" fill="#ff00b6">=</text>
<text text-anchor="start" x="173.565" y="-294.4" font-family="Times,serif" font-size="14.00" fill="#ff00b6">diffused</text>
<text text-anchor="start" x="110.562" y="-276.4" font-family="Times,serif" font-size="14.00" fill="#ff00b6">boundary</text>
<text text-anchor="start" x="164.553" y="-276.4" font-family="Times,serif" font-size="14.00" fill="#ff00b6">=</text>
<text text-anchor="start" x="187.555" y="-276.4" font-family="Times,serif" font-size="14.00" fill="#ff00b6">top</text>
<text text-anchor="start" x="121.84" y="-258.4" font-family="Times,serif" font-size="14.00" fill="#ff00b6">value</text>
<text text-anchor="start" x="164.553" y="-258.4" font-family="Times,serif" font-size="14.00" fill="#ff00b6">=</text>
<text text-anchor="start" x="193" y="-258.4" font-family="Times,serif" font-size="14.00" fill="#ff00b6">1</text>
</g>
<!-- global_root_ex10_i_BCs_top&#45;&gt;global_root_ex10_i_Variables_diffused -->
<g id="edge6" class="edge"><title>global_root_ex10_i_BCs_top:variable_VALUE&#45;&gt;global_root_ex10_i_Variables_diffused</title>
<path fill="none" stroke="#808080" d="M221,-299C282.31,-299 351.674,-299 403.696,-299"/>
<polygon fill="#808080" stroke="#808080" points="403.862,-302.5 413.862,-299 403.862,-295.5 403.862,-302.5"/>
</g>
<!-- global_root_ex10_i_BCs_bottom -->
<g id="node11" class="node"><title>global_root_ex10_i_BCs_bottom</title>
<polygon fill="none" stroke="#ff00b6" points="238,-228 96,-228 92,-224 92,-148 234,-148 238,-152 238,-228"/>
<polyline fill="none" stroke="#ff00b6" points="234,-224 92,-224 "/>
<polyline fill="none" stroke="#ff00b6" points="234,-224 234,-148 "/>
<polyline fill="none" stroke="#ff00b6" points="234,-224 238,-228 "/>
<polygon fill="#dddddd" stroke="none" points="100,-206 100,-224 230,-224 230,-206 100,-206"/>
<text text-anchor="start" x="100.842" y="-211.4" font-family="Times,serif" font-weight="bold" font-size="14.00" fill="#ff00b6">bottom </text>
<text text-anchor="start" x="148.675" y="-211.4" font-family="Times,serif" font-size="14.00" fill="#ff00b6">: DirichletBC</text>
<text text-anchor="start" x="109.457" y="-192.4" font-family="Times,serif" font-size="14.00" fill="#ff00b6">variable</text>
<text text-anchor="start" x="167.053" y="-192.4" font-family="Times,serif" font-size="14.00" fill="#ff00b6">=</text>
<text text-anchor="start" x="181.065" y="-192.4" font-family="Times,serif" font-size="14.00" fill="#ff00b6">diffused</text>
<text text-anchor="start" x="105.562" y="-174.4" font-family="Times,serif" font-size="14.00" fill="#ff00b6">boundary</text>
<text text-anchor="start" x="167.053" y="-174.4" font-family="Times,serif" font-size="14.00" fill="#ff00b6">=</text>
<text text-anchor="start" x="184.164" y="-174.4" font-family="Times,serif" font-size="14.00" fill="#ff00b6">bottom</text>
<text text-anchor="start" x="116.84" y="-156.4" font-family="Times,serif" font-size="14.00" fill="#ff00b6">value</text>
<text text-anchor="start" x="167.053" y="-156.4" font-family="Times,serif" font-size="14.00" fill="#ff00b6">=</text>
<text text-anchor="start" x="200.5" y="-156.4" font-family="Times,serif" font-size="14.00" fill="#ff00b6">0</text>
</g>
<!-- global_root_ex10_i_BCs_bottom&#45;&gt;global_root_ex10_i_Variables_diffused -->
<g id="edge7" class="edge"><title>global_root_ex10_i_BCs_bottom:variable_VALUE&#45;&gt;global_root_ex10_i_Variables_diffused</title>
<path fill="none" stroke="#808080" d="M231,-197C303.253,-197 379.224,-233.35 428.726,-262.65"/>
<polygon fill="#808080" stroke="#808080" points="426.977,-265.683 437.349,-267.842 430.587,-259.686 426.977,-265.683"/>
</g>
</g>
</svg>
