<?xml version="1.0" encoding="UTF-8" standalone="no"?>
<!DOCTYPE svg PUBLIC "-//W3C//DTD SVG 1.1//EN"
 "http://www.w3.org/Graphics/SVG/1.1/DTD/svg11.dtd">
<!-- Generated by graphviz version 2.38.0 (20140413.2041)
 -->
<!-- Title: ex10.i Pages: 1 -->
<svg width="1148pt" height="692pt"
 viewBox="0.00 0.00 1148.00 692.00" xmlns="http://www.w3.org/2000/svg" xmlns:xlink="http://www.w3.org/1999/xlink">
<g id="graph0" class="graph" transform="scale(1 1) rotate(0) translate(0 692)">
<title>ex10.i</title>
<polygon fill="white" stroke="none" points="0,-0 0,-692 1148,-692 1148,-0 0,-0"/>
<g id="clust1" class="cluster"><title>cluster_ex10_i</title>
<polygon fill="none" stroke="black" points="8,-8 8,-684 1140,-684 1140,-8 8,-8"/>
<text text-anchor="start" x="554.947" y="-668.4" font-family="Times,serif" font-weight="bold" font-size="14.00">ex10_i</text>
</g>
<g id="clust2" class="cluster"><title>cluster_Kernels</title>
<polygon fill="none" stroke="#5457b0" points="97.5,-566 97.5,-651 232.5,-651 232.5,-566 97.5,-566"/>
<text text-anchor="start" x="143.234" y="-635.4" font-family="Times,serif" font-weight="bold" font-size="14.00" fill="#5457b0">Kernels</text>
</g>
<g id="clust3" class="cluster"><title>cluster_Outputs</title>
<polygon fill="none" stroke="black" points="16,-371 16,-558 314,-558 314,-371 16,-371"/>
<text text-anchor="start" x="142.834" y="-542.4" font-family="Times,serif" font-weight="bold" font-size="14.00">Outputs</text>
</g>
<g id="clust4" class="cluster"><title>cluster_Variables</title>
<polygon fill="none" stroke="#000cff" points="406,-260 406,-363 563,-363 563,-260 406,-260"/>
<text text-anchor="start" x="457.682" y="-347.4" font-family="Times,serif" font-weight="bold" font-size="14.00" fill="#000cff">Variables</text>
</g>
<g id="clust5" class="cluster"><title>cluster_AuxKernels</title>
<polygon fill="none" stroke="#b07854" points="655,-227 655,-450 881,-450 881,-227 655,-227"/>
<text text-anchor="start" x="734.181" y="-434.4" font-family="Times,serif" font-weight="bold" font-size="14.00" fill="#b07854">AuxKernels</text>
</g>
<g id="clust6" class="cluster"><title>cluster_AuxVariables</title>
<polygon fill="none" stroke="#ff6500" points="973,-254 973,-441 1132,-441 1132,-254 973,-254"/>
<text text-anchor="start" x="1013.63" y="-425.4" font-family="Times,serif" font-weight="bold" font-size="14.00" fill="#ff6500">AuxVariables</text>
</g>
<g id="clust7" class="cluster"><title>cluster_BCs</title>
<polygon fill="none" stroke="#ff00b6" points="74,-140 74,-363 256,-363 256,-140 74,-140"/>
<text text-anchor="start" x="152.941" y="-347.4" font-family="Times,serif" font-weight="bold" font-size="14.00" fill="#ff00b6">BCs</text>
</g>
<!-- global_root_ex10_i_Executioner -->
<g id="node1" class="node"><title>global_root_ex10_i_Executioner</title>
<polygon fill="none" stroke="black" points="236.5,-126 97.5,-126 93.5,-122 93.5,-82 232.5,-82 236.5,-86 236.5,-126"/>
<polyline fill="none" stroke="black" points="232.5,-122 93.5,-122 "/>
<polyline fill="none" stroke="black" points="232.5,-122 232.5,-82 "/>
<polyline fill="none" stroke="black" points="232.5,-122 236.5,-126 "/>
<polygon fill="#cccccc" stroke="none" points="102,-104 102,-122 229,-122 229,-104 102,-104"/>
<text text-anchor="start" x="102.524" y="-109.4" font-family="Times,serif" font-weight="bold" font-size="14.00">Executioner </text>
<text text-anchor="start" x="178.323" y="-109.4" font-family="Times,serif" font-size="14.00">: Steady</text>
<text text-anchor="start" x="105.672" y="-90.4" font-family="Times,serif" font-size="14.00">solve_type</text>
<text text-anchor="start" x="172.053" y="-90.4" font-family="Times,serif" font-size="14.00">=</text>
<text text-anchor="start" x="184.888" y="-90.4" font-family="Times,serif" font-size="14.00">PJFNK</text>
</g>
<!-- global_root_ex10_i_Kernels_diff -->
<g id="node2" class="node"><title>global_root_ex10_i_Kernels_diff</title>
<polygon fill="none" stroke="#5457b0" points="224.5,-618 109.5,-618 105.5,-614 105.5,-574 220.5,-574 224.5,-578 224.5,-618"/>
<polyline fill="none" stroke="#5457b0" points="220.5,-614 105.5,-614 "/>
<polyline fill="none" stroke="#5457b0" points="220.5,-614 220.5,-574 "/>
<polyline fill="none" stroke="#5457b0" points="220.5,-614 224.5,-618 "/>
<polygon fill="#cccccc" stroke="none" points="114,-596 114,-614 217,-614 217,-596 114,-596"/>
<text text-anchor="start" x="118.461" y="-601.4" font-family="Times,serif" font-weight="bold" font-size="14.00">diff </text>
<text text-anchor="start" x="146.834" y="-601.4" font-family="Times,serif" font-size="14.00">: Diffusion</text>
<text text-anchor="start" x="114.957" y="-582.4" font-family="Times,serif" font-size="14.00">variable</text>
<text text-anchor="start" x="161.553" y="-582.4" font-family="Times,serif" font-size="14.00">=</text>
<text text-anchor="start" x="170.565" y="-582.4" font-family="Times,serif" font-size="14.00">diffused</text>
</g>
<!-- global_root_ex10_i_Variables_diffused -->
<g id="node5" class="node"><title>global_root_ex10_i_Variables_diffused</title>
<polygon fill="none" stroke="#000cff" points="555,-330 418,-330 414,-326 414,-268 551,-268 555,-272 555,-330"/>
<polyline fill="none" stroke="#000cff" points="551,-326 414,-326 "/>
<polyline fill="none" stroke="#000cff" points="551,-326 551,-268 "/>
<polyline fill="none" stroke="#000cff" points="551,-326 555,-330 "/>
<polygon fill="#cccccc" stroke="none" points="422.5,-308 422.5,-326 547.5,-326 547.5,-308 422.5,-308"/>
<text text-anchor="start" x="457.984" y="-313.4" font-family="Times,serif" font-weight="bold" font-size="14.00">diffused </text>
<text text-anchor="start" x="426.732" y="-294.4" font-family="Times,serif" font-size="14.00">order</text>
<text text-anchor="start" x="461.053" y="-294.4" font-family="Times,serif" font-size="14.00">=</text>
<text text-anchor="start" x="489.442" y="-294.4" font-family="Times,serif" font-size="14.00">FIRST</text>
<text text-anchor="start" x="423.226" y="-276.4" font-family="Times,serif" font-size="14.00">family</text>
<text text-anchor="start" x="461.053" y="-276.4" font-family="Times,serif" font-size="14.00">=</text>
<text text-anchor="start" x="470.013" y="-276.4" font-family="Times,serif" font-size="14.00">LAGRANGE</text>
</g>
<!-- global_root_ex10_i_Kernels_diff&#45;&gt;global_root_ex10_i_Variables_diffused -->
<g id="edge1" class="edge"><title>global_root_ex10_i_Kernels_diff:variable&#45;&gt;global_root_ex10_i_Variables_diffused</title>
<path fill="none" stroke="#808080" d="M218,-587C261.98,-587 278.27,-588.643 314,-563 393.686,-505.809 445.137,-398.443 468.645,-339.793"/>
<polygon fill="#808080" stroke="#808080" points="472.046,-340.709 472.445,-330.122 465.53,-338.15 472.046,-340.709"/>
</g>
<!-- global_root_ex10_i_Outputs -->
<g id="node3" class="node"><title>global_root_ex10_i_Outputs</title>
<polygon fill="#cccccc" stroke="none" points="123,-503 123,-521 207,-521 207,-503 123,-503"/>
<text text-anchor="start" x="138.754" y="-508.4" font-family="Times,serif" font-weight="bold" font-size="14.00">Outputs </text>
<text text-anchor="start" x="123.735" y="-489.4" font-family="Times,serif" font-size="14.00">file_base</text>
<text text-anchor="start" x="175.553" y="-489.4" font-family="Times,serif" font-size="14.00">=</text>
<text text-anchor="start" x="186.555" y="-489.4" font-family="Times,serif" font-size="14.00">out</text>
<text text-anchor="start" x="129.17" y="-471.4" font-family="Times,serif" font-size="14.00">exodus</text>
<text text-anchor="start" x="175.553" y="-471.4" font-family="Times,serif" font-size="14.00">=</text>
<text text-anchor="start" x="184.617" y="-471.4" font-family="Times,serif" font-size="14.00">true</text>
</g>
<!-- global_root_ex10_i_Outputs_console -->
<g id="node4" class="node"><title>global_root_ex10_i_Outputs_console</title>
<polygon fill="none" stroke="black" points="306,-441 28,-441 24,-437 24,-379 302,-379 306,-383 306,-441"/>
<polyline fill="none" stroke="black" points="302,-437 24,-437 "/>
<polyline fill="none" stroke="black" points="302,-437 302,-379 "/>
<polyline fill="none" stroke="black" points="302,-437 306,-441 "/>
<polygon fill="#cccccc" stroke="none" points="32,-419 32,-437 298,-437 298,-419 32,-419"/>
<text text-anchor="start" x="110.569" y="-424.4" font-family="Times,serif" font-weight="bold" font-size="14.00">console </text>
<text text-anchor="start" x="161.494" y="-424.4" font-family="Times,serif" font-size="14.00">: Console</text>
<text text-anchor="start" x="32.6094" y="-405.4" font-family="Times,serif" font-size="14.00">output_on</text>
<text text-anchor="start" x="90.5527" y="-405.4" font-family="Times,serif" font-size="14.00">=</text>
<text text-anchor="start" x="99.9484" y="-405.4" font-family="Times,serif" font-size="14.00">timestep_end failed nonlinear linea</text>
<text text-anchor="start" x="37.2868" y="-387.4" font-family="Times,serif" font-size="14.00">perf_log</text>
<text text-anchor="start" x="90.5527" y="-387.4" font-family="Times,serif" font-size="14.00">=</text>
<text text-anchor="start" x="187.617" y="-387.4" font-family="Times,serif" font-size="14.00">true</text>
</g>
<!-- global_root_ex10_i_AuxKernels_nodal_example -->
<g id="node6" class="node"><title>global_root_ex10_i_AuxKernels_nodal_example</title>
<polygon fill="none" stroke="#b07854" points="866.5,-417 673.5,-417 669.5,-413 669.5,-337 862.5,-337 866.5,-341 866.5,-417"/>
<polyline fill="none" stroke="#b07854" points="862.5,-413 669.5,-413 "/>
<polyline fill="none" stroke="#b07854" points="862.5,-413 862.5,-337 "/>
<polyline fill="none" stroke="#b07854" points="862.5,-413 866.5,-417 "/>
<polygon fill="#cccccc" stroke="none" points="678,-395 678,-413 859,-413 859,-395 678,-395"/>
<text text-anchor="start" x="678.694" y="-400.4" font-family="Times,serif" font-weight="bold" font-size="14.00">nodal_example </text>
<text text-anchor="start" x="772.385" y="-400.4" font-family="Times,serif" font-size="14.00">: ExampleAux</text>
<text text-anchor="start" x="694.957" y="-381.4" font-family="Times,serif" font-size="14.00">variable</text>
<text text-anchor="start" x="765.553" y="-381.4" font-family="Times,serif" font-size="14.00">=</text>
<text text-anchor="start" x="791.34" y="-381.4" font-family="Times,serif" font-size="14.00">nodal_aux</text>
<text text-anchor="start" x="702.34" y="-363.4" font-family="Times,serif" font-size="14.00">value</text>
<text text-anchor="start" x="765.553" y="-363.4" font-family="Times,serif" font-size="14.00">=</text>
<text text-anchor="start" x="811.75" y="-363.4" font-family="Times,serif" font-size="14.00">3.0</text>
<text text-anchor="start" x="695.34" y="-345.4" font-family="Times,serif" font-size="14.00">coupled</text>
<text text-anchor="start" x="765.553" y="-345.4" font-family="Times,serif" font-size="14.00">=</text>
<text text-anchor="start" x="797.564" y="-345.4" font-family="Times,serif" font-size="14.00">diffused</text>
</g>
<!-- global_root_ex10_i_Variables_diffused&#45;&gt;global_root_ex10_i_AuxKernels_nodal_example -->
<g id="edge3" class="edge"><title>global_root_ex10_i_Variables_diffused&#45;&gt;global_root_ex10_i_AuxKernels_nodal_example:coupled</title>
<path fill="none" stroke="#808080" d="M555.259,-326.888C588.119,-337.817 628.447,-348.157 666.778,-349.78"/>
<polygon fill="#808080" stroke="#808080" points="666.927,-353.283 677,-350 667.078,-346.285 666.927,-353.283"/>
</g>
<!-- global_root_ex10_i_AuxKernels_element_example -->
<g id="node7" class="node"><title>global_root_ex10_i_AuxKernels_element_example</title>
<polygon fill="none" stroke="#b07854" points="873,-315 667,-315 663,-311 663,-235 869,-235 873,-239 873,-315"/>
<polyline fill="none" stroke="#b07854" points="869,-311 663,-311 "/>
<polyline fill="none" stroke="#b07854" points="869,-311 869,-235 "/>
<polyline fill="none" stroke="#b07854" points="869,-311 873,-315 "/>
<polygon fill="#cccccc" stroke="none" points="671,-293 671,-311 865,-311 865,-293 671,-293"/>
<text text-anchor="start" x="671.589" y="-298.4" font-family="Times,serif" font-weight="bold" font-size="14.00">element_example </text>
<text text-anchor="start" x="778.49" y="-298.4" font-family="Times,serif" font-size="14.00">: ExampleAux</text>
<text text-anchor="start" x="687.957" y="-279.4" font-family="Times,serif" font-size="14.00">variable</text>
<text text-anchor="start" x="758.553" y="-279.4" font-family="Times,serif" font-size="14.00">=</text>
<text text-anchor="start" x="784.235" y="-279.4" font-family="Times,serif" font-size="14.00">element_aux</text>
<text text-anchor="start" x="695.34" y="-261.4" font-family="Times,serif" font-size="14.00">value</text>
<text text-anchor="start" x="758.553" y="-261.4" font-family="Times,serif" font-size="14.00">=</text>
<text text-anchor="start" x="811.25" y="-261.4" font-family="Times,serif" font-size="14.00">4.0</text>
<text text-anchor="start" x="688.34" y="-243.4" font-family="Times,serif" font-size="14.00">coupled</text>
<text text-anchor="start" x="758.553" y="-243.4" font-family="Times,serif" font-size="14.00">=</text>
<text text-anchor="start" x="797.064" y="-243.4" font-family="Times,serif" font-size="14.00">diffused</text>
</g>
<!-- global_root_ex10_i_Variables_diffused&#45;&gt;global_root_ex10_i_AuxKernels_element_example -->
<g id="edge5" class="edge"><title>global_root_ex10_i_Variables_diffused&#45;&gt;global_root_ex10_i_AuxKernels_element_example:coupled</title>
<path fill="none" stroke="#808080" d="M555.223,-270.221C586.315,-259.647 623.978,-249.838 659.916,-248.23"/>
<polygon fill="#808080" stroke="#808080" points="660.082,-251.727 670,-248 659.923,-244.729 660.082,-251.727"/>
</g>
<!-- global_root_ex10_i_AuxVariables_nodal_aux -->
<g id="node10" class="node"><title>global_root_ex10_i_AuxVariables_nodal_aux</title>
<polygon fill="none" stroke="#ff6500" points="1123,-408 986,-408 982,-404 982,-346 1119,-346 1123,-350 1123,-408"/>
<polyline fill="none" stroke="#ff6500" points="1119,-404 982,-404 "/>
<polyline fill="none" stroke="#ff6500" points="1119,-404 1119,-346 "/>
<polyline fill="none" stroke="#ff6500" points="1119,-404 1123,-408 "/>
<polygon fill="#cccccc" stroke="none" points="990.5,-386 990.5,-404 1115.5,-404 1115.5,-386 990.5,-386"/>
<text text-anchor="start" x="1019.76" y="-391.4" font-family="Times,serif" font-weight="bold" font-size="14.00">nodal_aux </text>
<text text-anchor="start" x="994.732" y="-372.4" font-family="Times,serif" font-size="14.00">order</text>
<text text-anchor="start" x="1029.05" y="-372.4" font-family="Times,serif" font-size="14.00">=</text>
<text text-anchor="start" x="1057.44" y="-372.4" font-family="Times,serif" font-size="14.00">FIRST</text>
<text text-anchor="start" x="991.226" y="-354.4" font-family="Times,serif" font-size="14.00">family</text>
<text text-anchor="start" x="1029.05" y="-354.4" font-family="Times,serif" font-size="14.00">=</text>
<text text-anchor="start" x="1038.01" y="-354.4" font-family="Times,serif" font-size="14.00">LAGRANGE</text>
</g>
<!-- global_root_ex10_i_AuxKernels_nodal_example&#45;&gt;global_root_ex10_i_AuxVariables_nodal_aux -->
<g id="edge2" class="edge"><title>global_root_ex10_i_AuxKernels_nodal_example:variable&#45;&gt;global_root_ex10_i_AuxVariables_nodal_aux</title>
<path fill="none" stroke="#808080" d="M860,-386C896.806,-386 937.547,-384.321 971.956,-382.413"/>
<polygon fill="#808080" stroke="#808080" points="972.166,-385.907 981.951,-381.842 971.768,-378.918 972.166,-385.907"/>
</g>
<!-- global_root_ex10_i_AuxVariables_element_aux -->
<g id="node9" class="node"><title>global_root_ex10_i_AuxVariables_element_aux</title>
<polygon fill="none" stroke="#ff6500" points="1124,-324 985,-324 981,-320 981,-262 1120,-262 1124,-266 1124,-324"/>
<polyline fill="none" stroke="#ff6500" points="1120,-320 981,-320 "/>
<polyline fill="none" stroke="#ff6500" points="1120,-320 1120,-262 "/>
<polyline fill="none" stroke="#ff6500" points="1120,-320 1124,-324 "/>
<polygon fill="#cccccc" stroke="none" points="989.5,-302 989.5,-320 1116.5,-320 1116.5,-302 989.5,-302"/>
<text text-anchor="start" x="1013.15" y="-307.4" font-family="Times,serif" font-weight="bold" font-size="14.00">element_aux </text>
<text text-anchor="start" x="993.732" y="-288.4" font-family="Times,serif" font-size="14.00">order</text>
<text text-anchor="start" x="1028.05" y="-288.4" font-family="Times,serif" font-size="14.00">=</text>
<text text-anchor="start" x="1039.17" y="-288.4" font-family="Times,serif" font-size="14.00">CONSTANT</text>
<text text-anchor="start" x="990.226" y="-270.4" font-family="Times,serif" font-size="14.00">family</text>
<text text-anchor="start" x="1028.05" y="-270.4" font-family="Times,serif" font-size="14.00">=</text>
<text text-anchor="start" x="1037.24" y="-270.4" font-family="Times,serif" font-size="14.00">MONOMIAL</text>
</g>
<!-- global_root_ex10_i_AuxKernels_element_example&#45;&gt;global_root_ex10_i_AuxVariables_element_aux -->
<g id="edge4" class="edge"><title>global_root_ex10_i_AuxKernels_element_example:variable&#45;&gt;global_root_ex10_i_AuxVariables_element_aux</title>
<path fill="none" stroke="#808080" d="M866,-284C900.185,-284 937.873,-285.544 970.298,-287.353"/>
<polygon fill="#808080" stroke="#808080" points="970.445,-290.867 980.63,-287.948 970.848,-283.878 970.445,-290.867"/>
</g>
<!-- global_root_ex10_i_Mesh -->
<g id="node8" class="node"><title>global_root_ex10_i_Mesh</title>
<polygon fill="none" stroke="black" points="201.5,-60 132.5,-60 128.5,-56 128.5,-16 197.5,-16 201.5,-20 201.5,-60"/>
<polyline fill="none" stroke="black" points="197.5,-56 128.5,-56 "/>
<polyline fill="none" stroke="black" points="197.5,-56 197.5,-16 "/>
<polyline fill="none" stroke="black" points="197.5,-56 201.5,-60 "/>
<polygon fill="#cccccc" stroke="none" points="137,-38 137,-56 194,-56 194,-38 137,-38"/>
<text text-anchor="start" x="145.868" y="-43.4" font-family="Times,serif" font-weight="bold" font-size="14.00">Mesh </text>
<text text-anchor="start" x="137.672" y="-24.4" font-family="Times,serif" font-size="14.00">file</text>
<text text-anchor="start" x="157.553" y="-24.4" font-family="Times,serif" font-size="14.00">=</text>
<text text-anchor="start" x="166.598" y="-24.4" font-family="Times,serif" font-size="14.00">car.e</text>
</g>
<!-- global_root_ex10_i_BCs_bc_bottom -->
<g id="node11" class="node"><title>global_root_ex10_i_BCs_bc_bottom</title>
<polygon fill="none" stroke="#ff00b6" points="248,-330 86,-330 82,-326 82,-250 244,-250 248,-254 248,-330"/>
<polyline fill="none" stroke="#ff00b6" points="244,-326 82,-326 "/>
<polyline fill="none" stroke="#ff00b6" points="244,-326 244,-250 "/>
<polyline fill="none" stroke="#ff00b6" points="244,-326 248,-330 "/>
<polygon fill="#cccccc" stroke="none" points="90,-308 90,-326 240,-326 240,-308 90,-308"/>
<text text-anchor="start" x="90.7349" y="-313.4" font-family="Times,serif" font-weight="bold" font-size="14.00">bc_bottom </text>
<text text-anchor="start" x="158.782" y="-313.4" font-family="Times,serif" font-size="14.00">: DirichletBC</text>
<text text-anchor="start" x="104.457" y="-294.4" font-family="Times,serif" font-size="14.00">variable</text>
<text text-anchor="start" x="169.553" y="-294.4" font-family="Times,serif" font-size="14.00">=</text>
<text text-anchor="start" x="188.565" y="-294.4" font-family="Times,serif" font-size="14.00">diffused</text>
<text text-anchor="start" x="100.562" y="-276.4" font-family="Times,serif" font-size="14.00">boundary</text>
<text text-anchor="start" x="169.553" y="-276.4" font-family="Times,serif" font-size="14.00">=</text>
<text text-anchor="start" x="191.664" y="-276.4" font-family="Times,serif" font-size="14.00">bottom</text>
<text text-anchor="start" x="111.84" y="-258.4" font-family="Times,serif" font-size="14.00">value</text>
<text text-anchor="start" x="169.553" y="-258.4" font-family="Times,serif" font-size="14.00">=</text>
<text text-anchor="start" x="208" y="-258.4" font-family="Times,serif" font-size="14.00">0</text>
</g>
<!-- global_root_ex10_i_BCs_bc_bottom&#45;&gt;global_root_ex10_i_Variables_diffused -->
<g id="edge6" class="edge"><title>global_root_ex10_i_BCs_bc_bottom:variable&#45;&gt;global_root_ex10_i_Variables_diffused</title>
<path fill="none" stroke="#808080" d="M241,-299C295.323,-299 356.492,-299 403.805,-299"/>
<polygon fill="#808080" stroke="#808080" points="403.988,-302.5 413.988,-299 403.988,-295.5 403.988,-302.5"/>
</g>
<!-- global_root_ex10_i_BCs_bc_top -->
<g id="node12" class="node"><title>global_root_ex10_i_BCs_bc_top</title>
<polygon fill="none" stroke="#ff00b6" points="237,-228 97,-228 93,-224 93,-148 233,-148 237,-152 237,-228"/>
<polyline fill="none" stroke="#ff00b6" points="233,-224 93,-224 "/>
<polyline fill="none" stroke="#ff00b6" points="233,-224 233,-148 "/>
<polyline fill="none" stroke="#ff00b6" points="233,-224 237,-228 "/>
<polygon fill="#cccccc" stroke="none" points="101,-206 101,-224 229,-224 229,-206 101,-206"/>
<text text-anchor="start" x="101.626" y="-211.4" font-family="Times,serif" font-weight="bold" font-size="14.00">bc_top </text>
<text text-anchor="start" x="147.891" y="-211.4" font-family="Times,serif" font-size="14.00">: DirichletBC</text>
<text text-anchor="start" x="109.957" y="-192.4" font-family="Times,serif" font-size="14.00">variable</text>
<text text-anchor="start" x="166.553" y="-192.4" font-family="Times,serif" font-size="14.00">=</text>
<text text-anchor="start" x="180.065" y="-192.4" font-family="Times,serif" font-size="14.00">diffused</text>
<text text-anchor="start" x="106.062" y="-174.4" font-family="Times,serif" font-size="14.00">boundary</text>
<text text-anchor="start" x="166.553" y="-174.4" font-family="Times,serif" font-size="14.00">=</text>
<text text-anchor="start" x="194.055" y="-174.4" font-family="Times,serif" font-size="14.00">top</text>
<text text-anchor="start" x="117.34" y="-156.4" font-family="Times,serif" font-size="14.00">value</text>
<text text-anchor="start" x="166.553" y="-156.4" font-family="Times,serif" font-size="14.00">=</text>
<text text-anchor="start" x="199.5" y="-156.4" font-family="Times,serif" font-size="14.00">1</text>
</g>
<!-- global_root_ex10_i_BCs_bc_top&#45;&gt;global_root_ex10_i_Variables_diffused -->
<g id="edge7" class="edge"><title>global_root_ex10_i_BCs_bc_top:variable&#45;&gt;global_root_ex10_i_Variables_diffused</title>
<path fill="none" stroke="#808080" d="M230,-197C302.499,-197 378.779,-233.35 428.489,-262.65"/>
<polygon fill="#808080" stroke="#808080" points="426.773,-265.702 437.149,-267.842 430.372,-259.698 426.773,-265.702"/>
</g>
</g>
</svg>
