<?xml version="1.0" encoding="UTF-8" standalone="no"?>
<!DOCTYPE svg PUBLIC "-//W3C//DTD SVG 1.1//EN"
 "http://www.w3.org/Graphics/SVG/1.1/DTD/svg11.dtd">
<!-- Generated by graphviz version 2.38.0 (20140413.2041)
 -->
<!-- Title: ex20.i Pages: 1 -->
<svg width="692pt" height="916pt"
 viewBox="0.00 0.00 691.50 916.00" xmlns="http://www.w3.org/2000/svg" xmlns:xlink="http://www.w3.org/1999/xlink">
<g id="graph0" class="graph" transform="scale(1 1) rotate(0) translate(0 916)">
<title>ex20.i</title>
<polygon fill="white" stroke="none" points="0,-0 0,-916 691.5,-916 691.5,-0 0,-0"/>
<g id="clust1" class="cluster"><title>cluster_global_root_ex20_i</title>
<polygon fill="none" stroke="black" points="8,-8 8,-908 683.5,-908 683.5,-8 8,-8"/>
<polygon fill="#dddddd" stroke="none" points="321.75,-886 321.75,-904 369.75,-904 369.75,-886 321.75,-886"/>
<text text-anchor="start" x="322.617" y="-891.4" font-family="Times,serif" font-weight="bold" font-size="14.00">ex20_i </text>
</g>
<g id="clust2" class="cluster"><title>cluster_global_root_ex20_i_UserObjects</title>
<polygon fill="none" stroke="black" points="68.5,-610 68.5,-714 261.5,-714 261.5,-610 68.5,-610"/>
<polygon fill="#dddddd" stroke="none" points="125,-692 125,-710 206,-710 206,-692 125,-692"/>
<text text-anchor="start" x="126.826" y="-697.4" font-family="Times,serif" font-weight="bold" font-size="14.00">UserObjects </text>
</g>
<g id="clust3" class="cluster"><title>cluster_global_root_ex20_i_Kernels</title>
<polygon fill="none" stroke="#5457b0" points="76.5,-722 76.5,-874 253.5,-874 253.5,-722 76.5,-722"/>
<polygon fill="#dddddd" stroke="none" points="138,-852 138,-870 192,-870 192,-852 138,-852"/>
<text text-anchor="start" x="139.154" y="-857.4" font-family="Times,serif" font-weight="bold" font-size="14.00" fill="#5457b0">Kernels </text>
</g>
<g id="clust4" class="cluster"><title>cluster_global_root_ex20_i_Outputs</title>
<polygon fill="none" stroke="black" points="16,-462 16,-602 314,-602 314,-462 16,-462"/>
<polygon fill="#dddddd" stroke="none" points="76,-580 76,-598 255,-598 255,-580 76,-580"/>
<text text-anchor="start" x="139.254" y="-585.4" font-family="Times,serif" font-weight="bold" font-size="14.00">Outputs </text>
<text text-anchor="start" x="76.6094" y="-566.4" font-family="Times,serif" font-size="14.00">output_on</text>
<text text-anchor="start" x="134.553" y="-566.4" font-family="Times,serif" font-size="14.00">=</text>
<text text-anchor="start" x="143.591" y="-566.4" font-family="Times,serif" font-size="14.00">initial timestep_end</text>
<text text-anchor="start" x="85.1704" y="-548.4" font-family="Times,serif" font-size="14.00">exodus</text>
<text text-anchor="start" x="134.553" y="-548.4" font-family="Times,serif" font-size="14.00">=</text>
<text text-anchor="start" x="188.117" y="-548.4" font-family="Times,serif" font-size="14.00">true</text>
</g>
<g id="clust5" class="cluster"><title>cluster_global_root_ex20_i_Variables</title>
<polygon fill="none" stroke="#000cff" points="461.5,-619 461.5,-705 622.5,-705 622.5,-619 461.5,-619"/>
<polygon fill="#dddddd" stroke="none" points="511,-683 511,-701 574,-701 574,-683 511,-683"/>
<text text-anchor="start" x="511.601" y="-688.4" font-family="Times,serif" font-weight="bold" font-size="14.00" fill="#000cff">Variables </text>
</g>
<g id="clust6" class="cluster"><title>cluster_global_root_ex20_i_Materials</title>
<polygon fill="none" stroke="#4d9302" points="408.5,-359 408.5,-463 675.5,-463 675.5,-359 408.5,-359"/>
<polygon fill="#dddddd" stroke="none" points="511,-441 511,-459 574,-459 574,-441 511,-441"/>
<text text-anchor="start" x="511.987" y="-446.4" font-family="Times,serif" font-weight="bold" font-size="14.00" fill="#4d9302">Materials </text>
</g>
<g id="clust7" class="cluster"><title>cluster_global_root_ex20_i_BCs</title>
<polygon fill="none" stroke="#ff00b6" points="90.5,-230 90.5,-454 239.5,-454 239.5,-230 90.5,-230"/>
<polygon fill="#dddddd" stroke="none" points="147,-432 147,-450 183,-450 183,-432 147,-432"/>
<text text-anchor="start" x="148.861" y="-437.4" font-family="Times,serif" font-weight="bold" font-size="14.00" fill="#ff00b6">BCs </text>
</g>
<!-- global_root_ex20_i_UserObjects_bav -->
<g id="node1" class="node"><title>global_root_ex20_i_UserObjects_bav</title>
<polygon fill="none" stroke="black" points="253.5,-680 80.5,-680 76.5,-676 76.5,-618 249.5,-618 253.5,-622 253.5,-680"/>
<polyline fill="none" stroke="black" points="249.5,-676 76.5,-676 "/>
<polyline fill="none" stroke="black" points="249.5,-676 249.5,-618 "/>
<polyline fill="none" stroke="black" points="249.5,-676 253.5,-680 "/>
<polygon fill="#dddddd" stroke="none" points="85,-658 85,-676 246,-676 246,-658 85,-658"/>
<text text-anchor="start" x="88.1472" y="-663.4" font-family="Times,serif" font-weight="bold" font-size="14.00">bav </text>
<text text-anchor="start" x="116.522" y="-663.4" font-family="Times,serif" font-size="14.00">: BlockAverageValue</text>
<text text-anchor="start" x="94.9572" y="-644.4" font-family="Times,serif" font-size="14.00">variable</text>
<text text-anchor="start" x="150.553" y="-644.4" font-family="Times,serif" font-size="14.00">=</text>
<text text-anchor="start" x="199" y="-644.4" font-family="Times,serif" font-size="14.00">u</text>
<text text-anchor="start" x="85.6255" y="-626.4" font-family="Times,serif" font-size="14.00">execute_on</text>
<text text-anchor="start" x="150.553" y="-626.4" font-family="Times,serif" font-size="14.00">=</text>
<text text-anchor="start" x="159.729" y="-626.4" font-family="Times,serif" font-size="14.00">timestep_begin</text>
</g>
<!-- global_root_ex20_i_Variables_u -->
<g id="node5" class="node"><title>global_root_ex20_i_Variables_u</title>
<polygon fill="none" stroke="#000cff" points="614.5,-671 473.5,-671 469.5,-667 469.5,-627 610.5,-627 614.5,-631 614.5,-671"/>
<polyline fill="none" stroke="#000cff" points="610.5,-667 469.5,-667 "/>
<polyline fill="none" stroke="#000cff" points="610.5,-667 610.5,-627 "/>
<polyline fill="none" stroke="#000cff" points="610.5,-667 614.5,-671 "/>
<polygon fill="#dddddd" stroke="none" points="478,-649 478,-667 607,-667 607,-649 478,-649"/>
<text text-anchor="start" x="534.92" y="-654.4" font-family="Times,serif" font-weight="bold" font-size="14.00" fill="#000cff">u </text>
<text text-anchor="start" x="478.723" y="-635.4" font-family="Times,serif" font-size="14.00" fill="#000cff">initial_condition</text>
<text text-anchor="start" x="572.553" y="-635.4" font-family="Times,serif" font-size="14.00" fill="#000cff">=</text>
<text text-anchor="start" x="581.75" y="-635.4" font-family="Times,serif" font-size="14.00" fill="#000cff">0.01</text>
</g>
<!-- global_root_ex20_i_UserObjects_bav&#45;&gt;global_root_ex20_i_Variables_u -->
<g id="edge1" class="edge"><title>global_root_ex20_i_UserObjects_bav:variable_VALUE&#45;&gt;global_root_ex20_i_Variables_u</title>
<path fill="none" stroke="#808080" d="M247,-649C318.772,-649 400.4,-649 459.403,-649"/>
<polygon fill="#808080" stroke="#808080" points="459.41,-652.5 469.41,-649 459.41,-645.5 459.41,-652.5"/>
</g>
<!-- global_root_ex20_i_Materials_badm -->
<g id="node7" class="node"><title>global_root_ex20_i_Materials_badm</title>
<polygon fill="none" stroke="#4d9302" points="667.5,-429 420.5,-429 416.5,-425 416.5,-367 663.5,-367 667.5,-371 667.5,-429"/>
<polyline fill="none" stroke="#4d9302" points="663.5,-425 416.5,-425 "/>
<polyline fill="none" stroke="#4d9302" points="663.5,-425 663.5,-367 "/>
<polyline fill="none" stroke="#4d9302" points="663.5,-425 667.5,-429 "/>
<polygon fill="#dddddd" stroke="none" points="425,-407 425,-425 660,-425 660,-407 425,-407"/>
<text text-anchor="start" x="425.878" y="-412.4" font-family="Times,serif" font-weight="bold" font-size="14.00" fill="#4d9302">badm </text>
<text text-anchor="start" x="465.144" y="-412.4" font-family="Times,serif" font-size="14.00" fill="#4d9302">: BlockAverageDiffusionMaterial</text>
<text text-anchor="start" x="437.528" y="-393.4" font-family="Times,serif" font-size="14.00" fill="#4d9302">block_average_userob</text>
<text text-anchor="start" x="582.553" y="-393.4" font-family="Times,serif" font-size="14.00" fill="#4d9302">=</text>
<text text-anchor="start" x="618.393" y="-393.4" font-family="Times,serif" font-size="14.00" fill="#4d9302">bav</text>
<text text-anchor="start" x="484.947" y="-375.4" font-family="Times,serif" font-size="14.00" fill="#4d9302">block</text>
<text text-anchor="start" x="582.553" y="-375.4" font-family="Times,serif" font-size="14.00" fill="#4d9302">=</text>
<text text-anchor="start" x="604.201" y="-375.4" font-family="Times,serif" font-size="14.00" fill="#4d9302">left right</text>
</g>
<!-- global_root_ex20_i_UserObjects_bav&#45;&gt;global_root_ex20_i_Materials_badm -->
<g id="edge4" class="edge"><title>global_root_ex20_i_UserObjects_bav&#45;&gt;global_root_ex20_i_Materials_badm:block_average_userobject_PARAM</title>
<path fill="none" stroke="#808080" d="M253.827,-636.513C275.172,-630.288 296.782,-620.964 314,-607 392.741,-543.141 324.076,-407.678 413.859,-398.492"/>
<polygon fill="#808080" stroke="#808080" points="414.181,-401.981 424,-398 413.842,-394.989 414.181,-401.981"/>
</g>
<!-- global_root_ex20_i_Kernels_diff -->
<g id="node2" class="node"><title>global_root_ex20_i_Kernels_diff</title>
<polygon fill="none" stroke="#5457b0" points="245.5,-840 88.5,-840 84.5,-836 84.5,-796 241.5,-796 245.5,-800 245.5,-840"/>
<polyline fill="none" stroke="#5457b0" points="241.5,-836 84.5,-836 "/>
<polyline fill="none" stroke="#5457b0" points="241.5,-836 241.5,-796 "/>
<polyline fill="none" stroke="#5457b0" points="241.5,-836 245.5,-840 "/>
<polygon fill="#dddddd" stroke="none" points="93,-818 93,-836 238,-836 238,-818 93,-818"/>
<text text-anchor="start" x="93.5799" y="-823.4" font-family="Times,serif" font-weight="bold" font-size="14.00" fill="#5457b0">diff </text>
<text text-anchor="start" x="121.952" y="-823.4" font-family="Times,serif" font-size="14.00" fill="#5457b0">: ExampleDiffusion</text>
<text text-anchor="start" x="113.957" y="-804.4" font-family="Times,serif" font-size="14.00" fill="#5457b0">variable</text>
<text text-anchor="start" x="190.553" y="-804.4" font-family="Times,serif" font-size="14.00" fill="#5457b0">=</text>
<text text-anchor="start" x="220" y="-804.4" font-family="Times,serif" font-size="14.00" fill="#5457b0">u</text>
</g>
<!-- global_root_ex20_i_Kernels_diff&#45;&gt;global_root_ex20_i_Variables_u -->
<g id="edge2" class="edge"><title>global_root_ex20_i_Kernels_diff:variable_VALUE&#45;&gt;global_root_ex20_i_Variables_u</title>
<path fill="none" stroke="#808080" d="M239,-809C349.617,-809 459.283,-724.146 510.72,-678.027"/>
<polygon fill="#808080" stroke="#808080" points="513.131,-680.565 518.173,-671.247 508.42,-675.387 513.131,-680.565"/>
</g>
<!-- global_root_ex20_i_Kernels_td -->
<g id="node3" class="node"><title>global_root_ex20_i_Kernels_td</title>
<polygon fill="none" stroke="#5457b0" points="233.5,-774 100.5,-774 96.5,-770 96.5,-730 229.5,-730 233.5,-734 233.5,-774"/>
<polyline fill="none" stroke="#5457b0" points="229.5,-770 96.5,-770 "/>
<polyline fill="none" stroke="#5457b0" points="229.5,-770 229.5,-730 "/>
<polyline fill="none" stroke="#5457b0" points="229.5,-770 233.5,-774 "/>
<polygon fill="#dddddd" stroke="none" points="105,-752 105,-770 226,-770 226,-752 105,-752"/>
<text text-anchor="start" x="105.633" y="-757.4" font-family="Times,serif" font-weight="bold" font-size="14.00" fill="#5457b0">td </text>
<text text-anchor="start" x="124.684" y="-757.4" font-family="Times,serif" font-size="14.00" fill="#5457b0">: TimeDerivative</text>
<text text-anchor="start" x="119.957" y="-738.4" font-family="Times,serif" font-size="14.00" fill="#5457b0">variable</text>
<text text-anchor="start" x="187.553" y="-738.4" font-family="Times,serif" font-size="14.00" fill="#5457b0">=</text>
<text text-anchor="start" x="211" y="-738.4" font-family="Times,serif" font-size="14.00" fill="#5457b0">u</text>
</g>
<!-- global_root_ex20_i_Kernels_td&#45;&gt;global_root_ex20_i_Variables_u -->
<g id="edge3" class="edge"><title>global_root_ex20_i_Kernels_td:variable_VALUE&#45;&gt;global_root_ex20_i_Variables_u</title>
<path fill="none" stroke="#808080" d="M227,-743C321.991,-743 426.612,-703.031 487.915,-675.219"/>
<polygon fill="#808080" stroke="#808080" points="489.382,-678.396 497.006,-671.039 486.458,-672.036 489.382,-678.396"/>
</g>
<!-- global_root_ex20_i_Outputs_console -->
<g id="node4" class="node"><title>global_root_ex20_i_Outputs_console</title>
<polygon fill="none" stroke="black" points="306,-532 28,-532 24,-528 24,-470 302,-470 306,-474 306,-532"/>
<polyline fill="none" stroke="black" points="302,-528 24,-528 "/>
<polyline fill="none" stroke="black" points="302,-528 302,-470 "/>
<polyline fill="none" stroke="black" points="302,-528 306,-532 "/>
<polygon fill="#dddddd" stroke="none" points="32,-510 32,-528 298,-528 298,-510 32,-510"/>
<text text-anchor="start" x="110.569" y="-515.4" font-family="Times,serif" font-weight="bold" font-size="14.00">console </text>
<text text-anchor="start" x="161.494" y="-515.4" font-family="Times,serif" font-size="14.00">: Console</text>
<text text-anchor="start" x="32.6094" y="-496.4" font-family="Times,serif" font-size="14.00">output_on</text>
<text text-anchor="start" x="90.5527" y="-496.4" font-family="Times,serif" font-size="14.00">=</text>
<text text-anchor="start" x="99.9484" y="-496.4" font-family="Times,serif" font-size="14.00">timestep_end failed nonlinear linea</text>
<text text-anchor="start" x="37.2868" y="-478.4" font-family="Times,serif" font-size="14.00">perf_log</text>
<text text-anchor="start" x="90.5527" y="-478.4" font-family="Times,serif" font-size="14.00">=</text>
<text text-anchor="start" x="187.617" y="-478.4" font-family="Times,serif" font-size="14.00">true</text>
</g>
<!-- global_root_ex20_i_Mesh -->
<g id="node6" class="node"><title>global_root_ex20_i_Mesh</title>
<polygon fill="none" stroke="#0000ff" points="229.5,-216 104.5,-216 100.5,-212 100.5,-154 225.5,-154 229.5,-158 229.5,-216"/>
<polyline fill="none" stroke="#0000ff" points="225.5,-212 100.5,-212 "/>
<polyline fill="none" stroke="#0000ff" points="225.5,-212 225.5,-154 "/>
<polyline fill="none" stroke="#0000ff" points="225.5,-212 229.5,-216 "/>
<polygon fill="#dddddd" stroke="none" points="109,-194 109,-212 222,-212 222,-194 109,-194"/>
<text text-anchor="start" x="145.868" y="-199.4" font-family="Times,serif" font-weight="bold" font-size="14.00" fill="#0000ff">Mesh </text>
<text text-anchor="start" x="109.609" y="-180.4" font-family="Times,serif" font-size="14.00" fill="#0000ff">dim</text>
<text text-anchor="start" x="132.553" y="-180.4" font-family="Times,serif" font-size="14.00" fill="#0000ff">=</text>
<text text-anchor="start" x="178" y="-180.4" font-family="Times,serif" font-size="14.00" fill="#0000ff">2</text>
<text text-anchor="start" x="111.172" y="-162.4" font-family="Times,serif" font-size="14.00" fill="#0000ff">file</text>
<text text-anchor="start" x="132.553" y="-162.4" font-family="Times,serif" font-size="14.00" fill="#0000ff">=</text>
<text text-anchor="start" x="141.655" y="-162.4" font-family="Times,serif" font-size="14.00" fill="#0000ff">two_squares.e</text>
</g>
<!-- global_root_ex20_i_Executioner -->
<g id="node8" class="node"><title>global_root_ex20_i_Executioner</title>
<polygon fill="none" stroke="black" points="308.5,-132 25.5,-132 21.5,-128 21.5,-16 304.5,-16 308.5,-20 308.5,-132"/>
<polyline fill="none" stroke="black" points="304.5,-128 21.5,-128 "/>
<polyline fill="none" stroke="black" points="304.5,-128 304.5,-16 "/>
<polyline fill="none" stroke="black" points="304.5,-128 308.5,-132 "/>
<polygon fill="#dddddd" stroke="none" points="30,-110 30,-128 301,-128 301,-110 30,-110"/>
<text text-anchor="start" x="95.1409" y="-115.4" font-family="Times,serif" font-weight="bold" font-size="14.00">Executioner </text>
<text text-anchor="start" x="170.94" y="-115.4" font-family="Times,serif" font-size="14.00">: Transient</text>
<text text-anchor="start" x="32.845" y="-96.4" font-family="Times,serif" font-size="14.00">petsc_options_value</text>
<text text-anchor="start" x="150.553" y="-96.4" font-family="Times,serif" font-size="14.00">=</text>
<text text-anchor="start" x="178.877" y="-96.4" font-family="Times,serif" font-size="14.00">hypre boomeramg</text>
<text text-anchor="start" x="60.0575" y="-78.4" font-family="Times,serif" font-size="14.00">num_steps</text>
<text text-anchor="start" x="150.553" y="-78.4" font-family="Times,serif" font-size="14.00">=</text>
<text text-anchor="start" x="223" y="-78.4" font-family="Times,serif" font-size="14.00">10</text>
<text text-anchor="start" x="59.6725" y="-60.4" font-family="Times,serif" font-size="14.00">solve_type</text>
<text text-anchor="start" x="150.553" y="-60.4" font-family="Times,serif" font-size="14.00">=</text>
<text text-anchor="start" x="209.388" y="-60.4" font-family="Times,serif" font-size="14.00">PJFNK</text>
<text text-anchor="start" x="84.5547" y="-42.4" font-family="Times,serif" font-size="14.00">dt</text>
<text text-anchor="start" x="150.553" y="-42.4" font-family="Times,serif" font-size="14.00">=</text>
<text text-anchor="start" x="226.5" y="-42.4" font-family="Times,serif" font-size="14.00">1</text>
<text text-anchor="start" x="30.8997" y="-24.4" font-family="Times,serif" font-size="14.00">petsc_options_iname</text>
<text text-anchor="start" x="150.553" y="-24.4" font-family="Times,serif" font-size="14.00">=</text>
<text text-anchor="start" x="159.832" y="-24.4" font-family="Times,serif" font-size="14.00">&#45;pc_type &#45;pc_hypre_type</text>
</g>
<!-- global_root_ex20_i_BCs_right -->
<g id="node9" class="node"><title>global_root_ex20_i_BCs_right</title>
<polygon fill="none" stroke="#ff00b6" points="231.5,-420 102.5,-420 98.5,-416 98.5,-340 227.5,-340 231.5,-344 231.5,-420"/>
<polyline fill="none" stroke="#ff00b6" points="227.5,-416 98.5,-416 "/>
<polyline fill="none" stroke="#ff00b6" points="227.5,-416 227.5,-340 "/>
<polyline fill="none" stroke="#ff00b6" points="227.5,-416 231.5,-420 "/>
<polygon fill="#dddddd" stroke="none" points="107,-398 107,-416 224,-416 224,-398 107,-398"/>
<text text-anchor="start" x="107.957" y="-403.4" font-family="Times,serif" font-weight="bold" font-size="14.00" fill="#ff00b6">right </text>
<text text-anchor="start" x="142.56" y="-403.4" font-family="Times,serif" font-size="14.00" fill="#ff00b6">: DirichletBC</text>
<text text-anchor="start" x="111.457" y="-384.4" font-family="Times,serif" font-size="14.00" fill="#ff00b6">variable</text>
<text text-anchor="start" x="161.553" y="-384.4" font-family="Times,serif" font-size="14.00" fill="#ff00b6">=</text>
<text text-anchor="start" x="193.5" y="-384.4" font-family="Times,serif" font-size="14.00" fill="#ff00b6">u</text>
<text text-anchor="start" x="107.562" y="-366.4" font-family="Times,serif" font-size="14.00" fill="#ff00b6">boundary</text>
<text text-anchor="start" x="161.553" y="-366.4" font-family="Times,serif" font-size="14.00" fill="#ff00b6">=</text>
<text text-anchor="start" x="170.558" y="-366.4" font-family="Times,serif" font-size="14.00" fill="#ff00b6">rightright</text>
<text text-anchor="start" x="118.84" y="-348.4" font-family="Times,serif" font-size="14.00" fill="#ff00b6">value</text>
<text text-anchor="start" x="161.553" y="-348.4" font-family="Times,serif" font-size="14.00" fill="#ff00b6">=</text>
<text text-anchor="start" x="193.5" y="-348.4" font-family="Times,serif" font-size="14.00" fill="#ff00b6">1</text>
</g>
<!-- global_root_ex20_i_BCs_right&#45;&gt;global_root_ex20_i_Variables_u -->
<g id="edge7" class="edge"><title>global_root_ex20_i_BCs_right:variable_VALUE&#45;&gt;global_root_ex20_i_Variables_u</title>
<path fill="none" stroke="#808080" d="M225,-389C367.782,-389 481.137,-549.245 523.269,-618.129"/>
<polygon fill="#808080" stroke="#808080" points="520.352,-620.071 528.509,-626.833 526.349,-616.46 520.352,-620.071"/>
</g>
<!-- global_root_ex20_i_BCs_right&#45;&gt;global_root_ex20_i_Materials_badm -->
<g id="edge6" class="edge"><title>global_root_ex20_i_BCs_right&#45;&gt;global_root_ex20_i_Materials_badm:block_PARAM</title>
<path fill="none" stroke="#808080" d="M231.746,-380C281.237,-380 351.074,-380 413.969,-380"/>
<polygon fill="#808080" stroke="#808080" points="414,-383.5 424,-380 414,-376.5 414,-383.5"/>
</g>
<!-- global_root_ex20_i_BCs_left -->
<g id="node10" class="node"><title>global_root_ex20_i_BCs_left</title>
<polygon fill="none" stroke="#ff00b6" points="227.5,-318 106.5,-318 102.5,-314 102.5,-238 223.5,-238 227.5,-242 227.5,-318"/>
<polyline fill="none" stroke="#ff00b6" points="223.5,-314 102.5,-314 "/>
<polyline fill="none" stroke="#ff00b6" points="223.5,-314 223.5,-238 "/>
<polyline fill="none" stroke="#ff00b6" points="223.5,-314 227.5,-318 "/>
<polygon fill="#dddddd" stroke="none" points="111,-296 111,-314 220,-314 220,-296 111,-296"/>
<text text-anchor="start" x="111.85" y="-301.4" font-family="Times,serif" font-weight="bold" font-size="14.00" fill="#ff00b6">left </text>
<text text-anchor="start" x="138.667" y="-301.4" font-family="Times,serif" font-size="14.00" fill="#ff00b6">: DirichletBC</text>
<text text-anchor="start" x="116.957" y="-282.4" font-family="Times,serif" font-size="14.00" fill="#ff00b6">variable</text>
<text text-anchor="start" x="169.553" y="-282.4" font-family="Times,serif" font-size="14.00" fill="#ff00b6">=</text>
<text text-anchor="start" x="196" y="-282.4" font-family="Times,serif" font-size="14.00" fill="#ff00b6">u</text>
<text text-anchor="start" x="113.062" y="-264.4" font-family="Times,serif" font-size="14.00" fill="#ff00b6">boundary</text>
<text text-anchor="start" x="169.553" y="-264.4" font-family="Times,serif" font-size="14.00" fill="#ff00b6">=</text>
<text text-anchor="start" x="180.844" y="-264.4" font-family="Times,serif" font-size="14.00" fill="#ff00b6">leftleft</text>
<text text-anchor="start" x="124.34" y="-246.4" font-family="Times,serif" font-size="14.00" fill="#ff00b6">value</text>
<text text-anchor="start" x="169.553" y="-246.4" font-family="Times,serif" font-size="14.00" fill="#ff00b6">=</text>
<text text-anchor="start" x="196" y="-246.4" font-family="Times,serif" font-size="14.00" fill="#ff00b6">0</text>
</g>
<!-- global_root_ex20_i_BCs_left&#45;&gt;global_root_ex20_i_Variables_u -->
<g id="edge8" class="edge"><title>global_root_ex20_i_BCs_left:variable_VALUE&#45;&gt;global_root_ex20_i_Variables_u</title>
<path fill="none" stroke="#808080" d="M221,-287C266.353,-287 279.282,-299.819 314,-329 371.186,-377.065 365.431,-406.963 408.5,-468 446.331,-521.613 491.761,-583.061 518.399,-618.805"/>
<polygon fill="#808080" stroke="#808080" points="515.645,-620.966 524.43,-626.889 521.256,-616.781 515.645,-620.966"/>
</g>
<!-- global_root_ex20_i_BCs_left&#45;&gt;global_root_ex20_i_Materials_badm -->
<g id="edge5" class="edge"><title>global_root_ex20_i_BCs_left&#45;&gt;global_root_ex20_i_Materials_badm:block_PARAM</title>
<path fill="none" stroke="#808080" d="M227.725,-297.7C254.478,-306.641 286.019,-317.727 314,-329 360.664,-347.801 369.105,-375.948 413.87,-379.604"/>
<polygon fill="#808080" stroke="#808080" points="413.871,-383.107 424,-380 414.144,-376.112 413.871,-383.107"/>
</g>
</g>
</svg>
