<?xml version="1.0" encoding="UTF-8" standalone="no"?>
<!DOCTYPE svg PUBLIC "-//W3C//DTD SVG 1.1//EN"
 "http://www.w3.org/Graphics/SVG/1.1/DTD/svg11.dtd">
<!-- Generated by graphviz version 2.38.0 (20140413.2041)
 -->
<!-- Title: ../ex20.i Pages: 1 -->
<svg width="1121pt" height="624pt"
 viewBox="0.00 0.00 1120.50 624.00" xmlns="http://www.w3.org/2000/svg" xmlns:xlink="http://www.w3.org/1999/xlink">
<g id="graph0" class="graph" transform="scale(1 1) rotate(0) translate(0 624)">
<title>../ex20.i</title>
<polygon fill="white" stroke="none" points="0,-0 0,-624 1120.5,-624 1120.5,-0 0,-0"/>
<g id="clust1" class="cluster"><title>cluster_ex20_i</title>
<polygon fill="none" stroke="black" points="8,-8 8,-616 1112.5,-616 1112.5,-8 8,-8"/>
</g>
<g id="clust2" class="cluster"><title>cluster_UserObjects</title>
<polygon fill="none" stroke="black" points="480.5,-16 480.5,-152 673.5,-152 673.5,-16 480.5,-16"/>
</g>
<g id="clust3" class="cluster"><title>cluster_Kernels</title>
<polygon fill="none" stroke="black" points="488.5,-160 488.5,-344 665.5,-344 665.5,-160 488.5,-160"/>
</g>
<g id="clust4" class="cluster"><title>cluster_Outputs</title>
<polygon fill="none" stroke="black" points="16,-430 16,-592 314,-592 314,-430 16,-430"/>
</g>
<g id="clust5" class="cluster"><title>cluster_Variables</title>
<polygon fill="none" stroke="black" points="84.5,-288 84.5,-406 245.5,-406 245.5,-288 84.5,-288"/>
</g>
<g id="clust6" class="cluster"><title>cluster_Materials</title>
<polygon fill="none" stroke="black" points="837.5,-361 837.5,-515 1104.5,-515 1104.5,-361 837.5,-361"/>
</g>
<g id="clust7" class="cluster"><title>cluster_BCs</title>
<polygon fill="none" stroke="black" points="502.5,-352 502.5,-608 651.5,-608 651.5,-352 502.5,-352"/>
</g>
<!-- global_root_ex20_i -->
<g id="node1" class="node"><title>global_root_ex20_i</title>
<polygon fill="gray" stroke="none" points="141,-247 141,-265 189,-265 189,-247 141,-247"/>
<text text-anchor="start" x="141.867" y="-252.4" font-family="Times,serif" font-weight="bold" font-size="14.00">ex20_i </text>
</g>
<!-- global_root_ex20_i_UserObjects -->
<g id="node2" class="node"><title>global_root_ex20_i_UserObjects</title>
<polygon fill="gray" stroke="none" points="537,-117 537,-135 618,-135 618,-117 537,-117"/>
<text text-anchor="start" x="538.826" y="-122.4" font-family="Times,serif" font-weight="bold" font-size="14.00">UserObjects </text>
</g>
<!-- global_root_ex20_i_UserObjects_bav -->
<g id="node3" class="node"><title>global_root_ex20_i_UserObjects_bav</title>
<polygon fill="none" stroke="black" points="665.5,-86 492.5,-86 488.5,-82 488.5,-24 661.5,-24 665.5,-28 665.5,-86"/>
<polyline fill="none" stroke="black" points="661.5,-82 488.5,-82 "/>
<polyline fill="none" stroke="black" points="661.5,-82 661.5,-24 "/>
<polyline fill="none" stroke="black" points="661.5,-82 665.5,-86 "/>
<polygon fill="gray" stroke="none" points="497,-64 497,-82 658,-82 658,-64 497,-64"/>
<text text-anchor="start" x="500.147" y="-69.4" font-family="Times,serif" font-weight="bold" font-size="14.00">bav </text>
<text text-anchor="start" x="528.522" y="-69.4" font-family="Times,serif" font-size="14.00">: BlockAverageValue</text>
<text text-anchor="start" x="506.957" y="-50.4" font-family="Times,serif" font-size="14.00">variable</text>
<text text-anchor="start" x="562.553" y="-50.4" font-family="Times,serif" font-size="14.00">=</text>
<text text-anchor="start" x="611" y="-50.4" font-family="Times,serif" font-size="14.00">u</text>
<text text-anchor="start" x="497.625" y="-32.4" font-family="Times,serif" font-size="14.00">execute_on</text>
<text text-anchor="start" x="562.553" y="-32.4" font-family="Times,serif" font-size="14.00">=</text>
<text text-anchor="start" x="571.729" y="-32.4" font-family="Times,serif" font-size="14.00">timestep_begin</text>
</g>
<!-- global_root_ex20_i_Materials_badm -->
<g id="node13" class="node"><title>global_root_ex20_i_Materials_badm</title>
<polygon fill="none" stroke="black" points="1096.5,-449 849.5,-449 845.5,-445 845.5,-369 1092.5,-369 1096.5,-373 1096.5,-449"/>
<polyline fill="none" stroke="black" points="1092.5,-445 845.5,-445 "/>
<polyline fill="none" stroke="black" points="1092.5,-445 1092.5,-369 "/>
<polyline fill="none" stroke="black" points="1092.5,-445 1096.5,-449 "/>
<polygon fill="gray" stroke="none" points="854,-427 854,-445 1089,-445 1089,-427 854,-427"/>
<text text-anchor="start" x="854.878" y="-432.4" font-family="Times,serif" font-weight="bold" font-size="14.00">badm </text>
<text text-anchor="start" x="894.144" y="-432.4" font-family="Times,serif" font-size="14.00">: BlockAverageDiffusionMaterial</text>
<text text-anchor="start" x="861.923" y="-413.4" font-family="Times,serif" font-size="14.00">block_average_userobject</text>
<text text-anchor="start" x="1020.05" y="-413.4" font-family="Times,serif" font-size="14.00">=</text>
<text text-anchor="start" x="1050.39" y="-413.4" font-family="Times,serif" font-size="14.00">bav</text>
<text text-anchor="start" x="919.447" y="-395.4" font-family="Times,serif" font-size="14.00">block</text>
<text text-anchor="start" x="1020.05" y="-395.4" font-family="Times,serif" font-size="14.00">=</text>
<text text-anchor="start" x="1036.2" y="-395.4" font-family="Times,serif" font-size="14.00">left right</text>
<text text-anchor="start" x="919.447" y="-377.4" font-family="Times,serif" font-size="14.00">block</text>
<text text-anchor="start" x="1020.05" y="-377.4" font-family="Times,serif" font-size="14.00">=</text>
<text text-anchor="start" x="1036.2" y="-377.4" font-family="Times,serif" font-size="14.00">left right</text>
</g>
<!-- global_root_ex20_i_UserObjects_bav&#45;&gt;global_root_ex20_i_Materials_badm -->
<g id="edge4" class="edge"><title>global_root_ex20_i_UserObjects_bav&#45;&gt;global_root_ex20_i_Materials_badm:block_average_userobject</title>
<path fill="none" stroke="#808080" d="M659.544,-86.2421C664.501,-89.5223 669.211,-93.102 673.5,-97 791.87,-204.569 693.947,-408.977 842.831,-417.711"/>
<polygon fill="#808080" stroke="#808080" points="842.905,-421.214 853,-418 843.104,-414.217 842.905,-421.214"/>
</g>
<!-- global_root_ex20_i_Kernels -->
<g id="node4" class="node"><title>global_root_ex20_i_Kernels</title>
<polygon fill="gray" stroke="none" points="550,-309 550,-327 604,-327 604,-309 550,-309"/>
<text text-anchor="start" x="551.154" y="-314.4" font-family="Times,serif" font-weight="bold" font-size="14.00">Kernels </text>
</g>
<!-- global_root_ex20_i_Kernels_diff -->
<g id="node5" class="node"><title>global_root_ex20_i_Kernels_diff</title>
<polygon fill="none" stroke="black" points="657.5,-278 500.5,-278 496.5,-274 496.5,-234 653.5,-234 657.5,-238 657.5,-278"/>
<polyline fill="none" stroke="black" points="653.5,-274 496.5,-274 "/>
<polyline fill="none" stroke="black" points="653.5,-274 653.5,-234 "/>
<polyline fill="none" stroke="black" points="653.5,-274 657.5,-278 "/>
<polygon fill="gray" stroke="none" points="505,-256 505,-274 650,-274 650,-256 505,-256"/>
<text text-anchor="start" x="505.58" y="-261.4" font-family="Times,serif" font-weight="bold" font-size="14.00">diff </text>
<text text-anchor="start" x="533.952" y="-261.4" font-family="Times,serif" font-size="14.00">: ExampleDiffusion</text>
<text text-anchor="start" x="525.957" y="-242.4" font-family="Times,serif" font-size="14.00">variable</text>
<text text-anchor="start" x="602.553" y="-242.4" font-family="Times,serif" font-size="14.00">=</text>
<text text-anchor="start" x="632" y="-242.4" font-family="Times,serif" font-size="14.00">u</text>
</g>
<!-- global_root_ex20_i_Kernels_td -->
<g id="node6" class="node"><title>global_root_ex20_i_Kernels_td</title>
<polygon fill="none" stroke="black" points="645.5,-212 512.5,-212 508.5,-208 508.5,-168 641.5,-168 645.5,-172 645.5,-212"/>
<polyline fill="none" stroke="black" points="641.5,-208 508.5,-208 "/>
<polyline fill="none" stroke="black" points="641.5,-208 641.5,-168 "/>
<polyline fill="none" stroke="black" points="641.5,-208 645.5,-212 "/>
<polygon fill="gray" stroke="none" points="517,-190 517,-208 638,-208 638,-190 517,-190"/>
<text text-anchor="start" x="517.633" y="-195.4" font-family="Times,serif" font-weight="bold" font-size="14.00">td </text>
<text text-anchor="start" x="536.684" y="-195.4" font-family="Times,serif" font-size="14.00">: TimeDerivative</text>
<text text-anchor="start" x="531.957" y="-176.4" font-family="Times,serif" font-size="14.00">variable</text>
<text text-anchor="start" x="599.553" y="-176.4" font-family="Times,serif" font-size="14.00">=</text>
<text text-anchor="start" x="623" y="-176.4" font-family="Times,serif" font-size="14.00">u</text>
</g>
<!-- global_root_ex20_i_Outputs -->
<g id="node7" class="node"><title>global_root_ex20_i_Outputs</title>
<polygon fill="gray" stroke="none" points="76,-562 76,-580 255,-580 255,-562 76,-562"/>
<text text-anchor="start" x="139.254" y="-567.4" font-family="Times,serif" font-weight="bold" font-size="14.00">Outputs </text>
<text text-anchor="start" x="76.6094" y="-548.4" font-family="Times,serif" font-size="14.00">output_on</text>
<text text-anchor="start" x="134.553" y="-548.4" font-family="Times,serif" font-size="14.00">=</text>
<text text-anchor="start" x="143.591" y="-548.4" font-family="Times,serif" font-size="14.00">initial timestep_end</text>
<text text-anchor="start" x="85.1704" y="-530.4" font-family="Times,serif" font-size="14.00">exodus</text>
<text text-anchor="start" x="134.553" y="-530.4" font-family="Times,serif" font-size="14.00">=</text>
<text text-anchor="start" x="188.117" y="-530.4" font-family="Times,serif" font-size="14.00">true</text>
</g>
<!-- global_root_ex20_i_Outputs_console -->
<g id="node8" class="node"><title>global_root_ex20_i_Outputs_console</title>
<polygon fill="none" stroke="black" points="306,-500 28,-500 24,-496 24,-438 302,-438 306,-442 306,-500"/>
<polyline fill="none" stroke="black" points="302,-496 24,-496 "/>
<polyline fill="none" stroke="black" points="302,-496 302,-438 "/>
<polyline fill="none" stroke="black" points="302,-496 306,-500 "/>
<polygon fill="gray" stroke="none" points="32,-478 32,-496 298,-496 298,-478 32,-478"/>
<text text-anchor="start" x="110.569" y="-483.4" font-family="Times,serif" font-weight="bold" font-size="14.00">console </text>
<text text-anchor="start" x="161.494" y="-483.4" font-family="Times,serif" font-size="14.00">: Console</text>
<text text-anchor="start" x="32.6094" y="-464.4" font-family="Times,serif" font-size="14.00">output_on</text>
<text text-anchor="start" x="90.5527" y="-464.4" font-family="Times,serif" font-size="14.00">=</text>
<text text-anchor="start" x="99.9484" y="-464.4" font-family="Times,serif" font-size="14.00">timestep_end failed nonlinear linea</text>
<text text-anchor="start" x="37.2868" y="-446.4" font-family="Times,serif" font-size="14.00">perf_log</text>
<text text-anchor="start" x="90.5527" y="-446.4" font-family="Times,serif" font-size="14.00">=</text>
<text text-anchor="start" x="187.617" y="-446.4" font-family="Times,serif" font-size="14.00">true</text>
</g>
<!-- global_root_ex20_i_Variables -->
<g id="node9" class="node"><title>global_root_ex20_i_Variables</title>
<polygon fill="gray" stroke="none" points="134,-371 134,-389 197,-389 197,-371 134,-371"/>
<text text-anchor="start" x="134.601" y="-376.4" font-family="Times,serif" font-weight="bold" font-size="14.00">Variables </text>
</g>
<!-- global_root_ex20_i_Variables_u -->
<g id="node10" class="node"><title>global_root_ex20_i_Variables_u</title>
<polygon fill="none" stroke="black" points="237.5,-340 96.5,-340 92.5,-336 92.5,-296 233.5,-296 237.5,-300 237.5,-340"/>
<polyline fill="none" stroke="black" points="233.5,-336 92.5,-336 "/>
<polyline fill="none" stroke="black" points="233.5,-336 233.5,-296 "/>
<polyline fill="none" stroke="black" points="233.5,-336 237.5,-340 "/>
<polygon fill="gray" stroke="none" points="101,-318 101,-336 230,-336 230,-318 101,-318"/>
<text text-anchor="start" x="157.92" y="-323.4" font-family="Times,serif" font-weight="bold" font-size="14.00">u </text>
<text text-anchor="start" x="101.723" y="-304.4" font-family="Times,serif" font-size="14.00">initial_condition</text>
<text text-anchor="start" x="195.553" y="-304.4" font-family="Times,serif" font-size="14.00">=</text>
<text text-anchor="start" x="204.75" y="-304.4" font-family="Times,serif" font-size="14.00">0.01</text>
</g>
<!-- global_root_ex20_i_Variables_u&#45;&gt;global_root_ex20_i_UserObjects_bav -->
<g id="edge1" class="edge"><title>global_root_ex20_i_Variables_u&#45;&gt;global_root_ex20_i_UserObjects_bav:variable</title>
<path fill="none" stroke="#808080" d="M237.532,-316.068C263.126,-312.722 291.244,-305.793 314,-292 424.58,-224.975 366.463,-63.7988 485.899,-55.3458"/>
<polygon fill="#808080" stroke="#808080" points="486.126,-58.8402 496,-55 485.886,-51.8443 486.126,-58.8402"/>
</g>
<!-- global_root_ex20_i_Variables_u&#45;&gt;global_root_ex20_i_Kernels_diff -->
<g id="edge2" class="edge"><title>global_root_ex20_i_Variables_u&#45;&gt;global_root_ex20_i_Kernels_diff:variable</title>
<path fill="none" stroke="#808080" d="M237.675,-306.28C261.965,-302.077 289.215,-297.107 314,-292 395.508,-275.203 415.612,-249.238 493.659,-247.136"/>
<polygon fill="#808080" stroke="#808080" points="494.047,-250.631 504,-247 493.955,-243.632 494.047,-250.631"/>
</g>
<!-- global_root_ex20_i_Variables_u&#45;&gt;global_root_ex20_i_Kernels_td -->
<g id="edge3" class="edge"><title>global_root_ex20_i_Variables_u&#45;&gt;global_root_ex20_i_Kernels_td:variable</title>
<path fill="none" stroke="#808080" d="M237.602,-310.266C262.261,-306.339 289.759,-300.525 314,-292 407.334,-259.175 413.251,-186.214 505.837,-181.265"/>
<polygon fill="#808080" stroke="#808080" points="506.095,-184.76 516,-181 505.912,-177.762 506.095,-184.76"/>
</g>
<!-- global_root_ex20_i_BCs_right -->
<g id="node16" class="node"><title>global_root_ex20_i_BCs_right</title>
<polygon fill="none" stroke="black" points="643.5,-542 514.5,-542 510.5,-538 510.5,-462 639.5,-462 643.5,-466 643.5,-542"/>
<polyline fill="none" stroke="black" points="639.5,-538 510.5,-538 "/>
<polyline fill="none" stroke="black" points="639.5,-538 639.5,-462 "/>
<polyline fill="none" stroke="black" points="639.5,-538 643.5,-542 "/>
<polygon fill="gray" stroke="none" points="519,-520 519,-538 636,-538 636,-520 519,-520"/>
<text text-anchor="start" x="519.957" y="-525.4" font-family="Times,serif" font-weight="bold" font-size="14.00">right </text>
<text text-anchor="start" x="554.56" y="-525.4" font-family="Times,serif" font-size="14.00">: DirichletBC</text>
<text text-anchor="start" x="523.457" y="-506.4" font-family="Times,serif" font-size="14.00">variable</text>
<text text-anchor="start" x="573.553" y="-506.4" font-family="Times,serif" font-size="14.00">=</text>
<text text-anchor="start" x="605.5" y="-506.4" font-family="Times,serif" font-size="14.00">u</text>
<text text-anchor="start" x="519.562" y="-488.4" font-family="Times,serif" font-size="14.00">boundary</text>
<text text-anchor="start" x="573.553" y="-488.4" font-family="Times,serif" font-size="14.00">=</text>
<text text-anchor="start" x="582.558" y="-488.4" font-family="Times,serif" font-size="14.00">rightright</text>
<text text-anchor="start" x="530.84" y="-470.4" font-family="Times,serif" font-size="14.00">value</text>
<text text-anchor="start" x="573.553" y="-470.4" font-family="Times,serif" font-size="14.00">=</text>
<text text-anchor="start" x="605.5" y="-470.4" font-family="Times,serif" font-size="14.00">1</text>
</g>
<!-- global_root_ex20_i_Variables_u&#45;&gt;global_root_ex20_i_BCs_right -->
<g id="edge7" class="edge"><title>global_root_ex20_i_Variables_u&#45;&gt;global_root_ex20_i_BCs_right:variable</title>
<path fill="none" stroke="#808080" d="M237.764,-327.351C262.697,-332.309 290.326,-339.79 314,-351 414.989,-398.821 403.594,-504.355 507.887,-510.7"/>
<polygon fill="#808080" stroke="#808080" points="507.901,-514.202 518,-511 508.108,-507.205 507.901,-514.202"/>
</g>
<!-- global_root_ex20_i_BCs_left -->
<g id="node17" class="node"><title>global_root_ex20_i_BCs_left</title>
<polygon fill="none" stroke="black" points="639.5,-440 518.5,-440 514.5,-436 514.5,-360 635.5,-360 639.5,-364 639.5,-440"/>
<polyline fill="none" stroke="black" points="635.5,-436 514.5,-436 "/>
<polyline fill="none" stroke="black" points="635.5,-436 635.5,-360 "/>
<polyline fill="none" stroke="black" points="635.5,-436 639.5,-440 "/>
<polygon fill="gray" stroke="none" points="523,-418 523,-436 632,-436 632,-418 523,-418"/>
<text text-anchor="start" x="523.85" y="-423.4" font-family="Times,serif" font-weight="bold" font-size="14.00">left </text>
<text text-anchor="start" x="550.667" y="-423.4" font-family="Times,serif" font-size="14.00">: DirichletBC</text>
<text text-anchor="start" x="528.957" y="-404.4" font-family="Times,serif" font-size="14.00">variable</text>
<text text-anchor="start" x="581.553" y="-404.4" font-family="Times,serif" font-size="14.00">=</text>
<text text-anchor="start" x="608" y="-404.4" font-family="Times,serif" font-size="14.00">u</text>
<text text-anchor="start" x="525.062" y="-386.4" font-family="Times,serif" font-size="14.00">boundary</text>
<text text-anchor="start" x="581.553" y="-386.4" font-family="Times,serif" font-size="14.00">=</text>
<text text-anchor="start" x="592.844" y="-386.4" font-family="Times,serif" font-size="14.00">leftleft</text>
<text text-anchor="start" x="536.34" y="-368.4" font-family="Times,serif" font-size="14.00">value</text>
<text text-anchor="start" x="581.553" y="-368.4" font-family="Times,serif" font-size="14.00">=</text>
<text text-anchor="start" x="608" y="-368.4" font-family="Times,serif" font-size="14.00">0</text>
</g>
<!-- global_root_ex20_i_Variables_u&#45;&gt;global_root_ex20_i_BCs_left -->
<g id="edge8" class="edge"><title>global_root_ex20_i_Variables_u&#45;&gt;global_root_ex20_i_BCs_left:variable</title>
<path fill="none" stroke="#808080" d="M237.693,-333.19C261.984,-338.548 289.231,-344.79 314,-351 403.726,-373.497 424.563,-406.51 511.891,-408.866"/>
<polygon fill="#808080" stroke="#808080" points="511.955,-412.367 522,-409 512.047,-405.368 511.955,-412.367"/>
</g>
<!-- global_root_ex20_i_Mesh -->
<g id="node11" class="node"><title>global_root_ex20_i_Mesh</title>
<polygon fill="none" stroke="black" points="229.5,-216 104.5,-216 100.5,-212 100.5,-154 225.5,-154 229.5,-158 229.5,-216"/>
<polyline fill="none" stroke="black" points="225.5,-212 100.5,-212 "/>
<polyline fill="none" stroke="black" points="225.5,-212 225.5,-154 "/>
<polyline fill="none" stroke="black" points="225.5,-212 229.5,-216 "/>
<polygon fill="gray" stroke="none" points="109,-194 109,-212 222,-212 222,-194 109,-194"/>
<text text-anchor="start" x="145.868" y="-199.4" font-family="Times,serif" font-weight="bold" font-size="14.00">Mesh </text>
<text text-anchor="start" x="109.609" y="-180.4" font-family="Times,serif" font-size="14.00">dim</text>
<text text-anchor="start" x="132.553" y="-180.4" font-family="Times,serif" font-size="14.00">=</text>
<text text-anchor="start" x="178" y="-180.4" font-family="Times,serif" font-size="14.00">2</text>
<text text-anchor="start" x="111.172" y="-162.4" font-family="Times,serif" font-size="14.00">file</text>
<text text-anchor="start" x="132.553" y="-162.4" font-family="Times,serif" font-size="14.00">=</text>
<text text-anchor="start" x="141.655" y="-162.4" font-family="Times,serif" font-size="14.00">two_squares.e</text>
</g>
<!-- global_root_ex20_i_Materials -->
<g id="node12" class="node"><title>global_root_ex20_i_Materials</title>
<polygon fill="gray" stroke="none" points="940,-480 940,-498 1003,-498 1003,-480 940,-480"/>
<text text-anchor="start" x="940.987" y="-485.4" font-family="Times,serif" font-weight="bold" font-size="14.00">Materials </text>
</g>
<!-- global_root_ex20_i_Executioner -->
<g id="node14" class="node"><title>global_root_ex20_i_Executioner</title>
<polygon fill="none" stroke="black" points="308.5,-132 25.5,-132 21.5,-128 21.5,-16 304.5,-16 308.5,-20 308.5,-132"/>
<polyline fill="none" stroke="black" points="304.5,-128 21.5,-128 "/>
<polyline fill="none" stroke="black" points="304.5,-128 304.5,-16 "/>
<polyline fill="none" stroke="black" points="304.5,-128 308.5,-132 "/>
<polygon fill="gray" stroke="none" points="30,-110 30,-128 301,-128 301,-110 30,-110"/>
<text text-anchor="start" x="95.1409" y="-115.4" font-family="Times,serif" font-weight="bold" font-size="14.00">Executioner </text>
<text text-anchor="start" x="170.94" y="-115.4" font-family="Times,serif" font-size="14.00">: Transient</text>
<text text-anchor="start" x="32.845" y="-96.4" font-family="Times,serif" font-size="14.00">petsc_options_value</text>
<text text-anchor="start" x="150.553" y="-96.4" font-family="Times,serif" font-size="14.00">=</text>
<text text-anchor="start" x="178.877" y="-96.4" font-family="Times,serif" font-size="14.00">hypre boomeramg</text>
<text text-anchor="start" x="60.0575" y="-78.4" font-family="Times,serif" font-size="14.00">num_steps</text>
<text text-anchor="start" x="150.553" y="-78.4" font-family="Times,serif" font-size="14.00">=</text>
<text text-anchor="start" x="223" y="-78.4" font-family="Times,serif" font-size="14.00">10</text>
<text text-anchor="start" x="59.6725" y="-60.4" font-family="Times,serif" font-size="14.00">solve_type</text>
<text text-anchor="start" x="150.553" y="-60.4" font-family="Times,serif" font-size="14.00">=</text>
<text text-anchor="start" x="209.388" y="-60.4" font-family="Times,serif" font-size="14.00">PJFNK</text>
<text text-anchor="start" x="84.5547" y="-42.4" font-family="Times,serif" font-size="14.00">dt</text>
<text text-anchor="start" x="150.553" y="-42.4" font-family="Times,serif" font-size="14.00">=</text>
<text text-anchor="start" x="226.5" y="-42.4" font-family="Times,serif" font-size="14.00">1</text>
<text text-anchor="start" x="30.8997" y="-24.4" font-family="Times,serif" font-size="14.00">petsc_options_iname</text>
<text text-anchor="start" x="150.553" y="-24.4" font-family="Times,serif" font-size="14.00">=</text>
<text text-anchor="start" x="159.832" y="-24.4" font-family="Times,serif" font-size="14.00">&#45;pc_type &#45;pc_hypre_type</text>
</g>
<!-- global_root_ex20_i_BCs -->
<g id="node15" class="node"><title>global_root_ex20_i_BCs</title>
<polygon fill="gray" stroke="none" points="559,-573 559,-591 595,-591 595,-573 559,-573"/>
<text text-anchor="start" x="560.861" y="-578.4" font-family="Times,serif" font-weight="bold" font-size="14.00">BCs </text>
</g>
<!-- global_root_ex20_i_BCs_right&#45;&gt;global_root_ex20_i_Materials_badm -->
<g id="edge6" class="edge"><title>global_root_ex20_i_BCs_right&#45;&gt;global_root_ex20_i_Materials_badm:block</title>
<path fill="none" stroke="#808080" d="M643.769,-471.535C706.058,-443.71 796.717,-406.094 842.811,-400.664"/>
<polygon fill="#808080" stroke="#808080" points="843.249,-404.143 853,-400 842.794,-397.158 843.249,-404.143"/>
</g>
<!-- global_root_ex20_i_BCs_left&#45;&gt;global_root_ex20_i_Materials_badm -->
<g id="edge5" class="edge"><title>global_root_ex20_i_BCs_left&#45;&gt;global_root_ex20_i_Materials_badm:block</title>
<path fill="none" stroke="#808080" d="M639.709,-400C692.831,-400 771.877,-400 842.626,-400"/>
<polygon fill="#808080" stroke="#808080" points="843,-403.5 853,-400 843,-396.5 843,-403.5"/>
</g>
</g>
</svg>
