<?xml version="1.0" encoding="UTF-8" standalone="no"?>
<!DOCTYPE svg PUBLIC "-//W3C//DTD SVG 1.1//EN"
 "http://www.w3.org/Graphics/SVG/1.1/DTD/svg11.dtd">
<!-- Generated by graphviz version 2.38.0 (20140413.2041)
 -->
<!-- Title: ex20.i Pages: 1 -->
<svg width="692pt" height="875pt"
 viewBox="0.00 0.00 691.50 875.00" xmlns="http://www.w3.org/2000/svg" xmlns:xlink="http://www.w3.org/1999/xlink">
<g id="graph0" class="graph" transform="scale(1 1) rotate(0) translate(0 875)">
<title>ex20.i</title>
<polygon fill="white" stroke="none" points="0,-0 0,-875 691.5,-875 691.5,-0 0,-0"/>
<g id="clust1" class="cluster"><title>cluster_ex20_i</title>
<polygon fill="none" stroke="black" points="8,-8 8,-867 683.5,-867 683.5,-8 8,-8"/>
<text text-anchor="start" x="326.697" y="-851.4" font-family="Times,serif" font-weight="bold" font-size="14.00">ex20_i</text>
</g>
<g id="clust2" class="cluster"><title>cluster_UserObjects</title>
<polygon fill="none" stroke="black" points="68.5,-731 68.5,-834 261.5,-834 261.5,-731 68.5,-731"/>
<text text-anchor="start" x="130.406" y="-818.4" font-family="Times,serif" font-weight="bold" font-size="14.00">UserObjects</text>
</g>
<g id="clust3" class="cluster"><title>cluster_Kernels</title>
<polygon fill="none" stroke="#5457b0" points="76.5,-572 76.5,-723 253.5,-723 253.5,-572 76.5,-572"/>
<text text-anchor="start" x="143.234" y="-707.4" font-family="Times,serif" font-weight="bold" font-size="14.00" fill="#5457b0">Kernels</text>
</g>
<g id="clust4" class="cluster"><title>cluster_Outputs</title>
<polygon fill="none" stroke="black" points="16,-461 16,-564 314,-564 314,-461 16,-461"/>
<text text-anchor="start" x="142.834" y="-548.4" font-family="Times,serif" font-weight="bold" font-size="14.00">Outputs</text>
</g>
<g id="clust5" class="cluster"><title>cluster_Variables</title>
<polygon fill="none" stroke="#000cff" points="461.5,-563 461.5,-648 622.5,-648 622.5,-563 461.5,-563"/>
<text text-anchor="start" x="515.182" y="-632.4" font-family="Times,serif" font-weight="bold" font-size="14.00" fill="#000cff">Variables</text>
</g>
<g id="clust6" class="cluster"><title>cluster_Materials</title>
<polygon fill="none" stroke="#aad76e" points="408.5,-731 408.5,-834 675.5,-834 675.5,-731 408.5,-731"/>
<text text-anchor="start" x="515.567" y="-818.4" font-family="Times,serif" font-weight="bold" font-size="14.00" fill="#aad76e">Materials</text>
</g>
<g id="clust7" class="cluster"><title>cluster_BCs</title>
<polygon fill="none" stroke="#ff00b6" points="80.5,-230 80.5,-453 249.5,-453 249.5,-230 80.5,-230"/>
<text text-anchor="start" x="152.941" y="-437.4" font-family="Times,serif" font-weight="bold" font-size="14.00" fill="#ff00b6">BCs</text>
</g>
<!-- global_root_ex20_i_UserObjects_bav -->
<g id="node1" class="node"><title>global_root_ex20_i_UserObjects_bav</title>
<polygon fill="none" stroke="black" points="253.5,-801 80.5,-801 76.5,-797 76.5,-739 249.5,-739 253.5,-743 253.5,-801"/>
<polyline fill="none" stroke="black" points="249.5,-797 76.5,-797 "/>
<polyline fill="none" stroke="black" points="249.5,-797 249.5,-739 "/>
<polyline fill="none" stroke="black" points="249.5,-797 253.5,-801 "/>
<polygon fill="#cccccc" stroke="none" points="85,-779 85,-797 246,-797 246,-779 85,-779"/>
<text text-anchor="start" x="88.1472" y="-784.4" font-family="Times,serif" font-weight="bold" font-size="14.00">bav </text>
<text text-anchor="start" x="116.522" y="-784.4" font-family="Times,serif" font-size="14.00">: BlockAverageValue</text>
<text text-anchor="start" x="94.9572" y="-765.4" font-family="Times,serif" font-size="14.00">variable</text>
<text text-anchor="start" x="150.553" y="-765.4" font-family="Times,serif" font-size="14.00">=</text>
<text text-anchor="start" x="199" y="-765.4" font-family="Times,serif" font-size="14.00">u</text>
<text text-anchor="start" x="85.6255" y="-747.4" font-family="Times,serif" font-size="14.00">execute_on</text>
<text text-anchor="start" x="150.553" y="-747.4" font-family="Times,serif" font-size="14.00">=</text>
<text text-anchor="start" x="159.729" y="-747.4" font-family="Times,serif" font-size="14.00">timestep_begin</text>
</g>
<!-- global_root_ex20_i_Variables_u -->
<g id="node5" class="node"><title>global_root_ex20_i_Variables_u</title>
<polygon fill="none" stroke="#000cff" points="614.5,-615 473.5,-615 469.5,-611 469.5,-571 610.5,-571 614.5,-575 614.5,-615"/>
<polyline fill="none" stroke="#000cff" points="610.5,-611 469.5,-611 "/>
<polyline fill="none" stroke="#000cff" points="610.5,-611 610.5,-571 "/>
<polyline fill="none" stroke="#000cff" points="610.5,-611 614.5,-615 "/>
<polygon fill="#cccccc" stroke="none" points="478,-593 478,-611 607,-611 607,-593 478,-593"/>
<text text-anchor="start" x="534.92" y="-598.4" font-family="Times,serif" font-weight="bold" font-size="14.00">u </text>
<text text-anchor="start" x="478.723" y="-579.4" font-family="Times,serif" font-size="14.00">initial_condition</text>
<text text-anchor="start" x="572.553" y="-579.4" font-family="Times,serif" font-size="14.00">=</text>
<text text-anchor="start" x="581.75" y="-579.4" font-family="Times,serif" font-size="14.00">0.01</text>
</g>
<!-- global_root_ex20_i_UserObjects_bav&#45;&gt;global_root_ex20_i_Variables_u -->
<g id="edge1" class="edge"><title>global_root_ex20_i_UserObjects_bav:variable&#45;&gt;global_root_ex20_i_Variables_u</title>
<path fill="none" stroke="#808080" d="M247,-770C360.054,-770 467.043,-672.748 514.842,-622.42"/>
<polygon fill="#808080" stroke="#808080" points="517.452,-624.753 521.728,-615.059 512.34,-619.971 517.452,-624.753"/>
</g>
<!-- global_root_ex20_i_Materials_badm -->
<g id="node7" class="node"><title>global_root_ex20_i_Materials_badm</title>
<polygon fill="none" stroke="#aad76e" points="667.5,-801 420.5,-801 416.5,-797 416.5,-739 663.5,-739 667.5,-743 667.5,-801"/>
<polyline fill="none" stroke="#aad76e" points="663.5,-797 416.5,-797 "/>
<polyline fill="none" stroke="#aad76e" points="663.5,-797 663.5,-739 "/>
<polyline fill="none" stroke="#aad76e" points="663.5,-797 667.5,-801 "/>
<polygon fill="#cccccc" stroke="none" points="425,-779 425,-797 660,-797 660,-779 425,-779"/>
<text text-anchor="start" x="425.878" y="-784.4" font-family="Times,serif" font-weight="bold" font-size="14.00">badm </text>
<text text-anchor="start" x="465.144" y="-784.4" font-family="Times,serif" font-size="14.00">: BlockAverageDiffusionMaterial</text>
<text text-anchor="start" x="432.923" y="-765.4" font-family="Times,serif" font-size="14.00">block_average_userobject</text>
<text text-anchor="start" x="591.053" y="-765.4" font-family="Times,serif" font-size="14.00">=</text>
<text text-anchor="start" x="621.393" y="-765.4" font-family="Times,serif" font-size="14.00">bav</text>
<text text-anchor="start" x="490.447" y="-747.4" font-family="Times,serif" font-size="14.00">block</text>
<text text-anchor="start" x="591.053" y="-747.4" font-family="Times,serif" font-size="14.00">=</text>
<text text-anchor="start" x="607.201" y="-747.4" font-family="Times,serif" font-size="14.00">left right</text>
</g>
<!-- global_root_ex20_i_UserObjects_bav&#45;&gt;global_root_ex20_i_Materials_badm -->
<g id="edge4" class="edge"><title>global_root_ex20_i_UserObjects_bav&#45;&gt;global_root_ex20_i_Materials_badm:block_average_userobject</title>
<path fill="none" stroke="#808080" d="M253.77,-770C300.753,-770 359.925,-770 413.972,-770"/>
<polygon fill="#808080" stroke="#808080" points="414,-773.5 424,-770 414,-766.5 414,-773.5"/>
</g>
<!-- global_root_ex20_i_Kernels_diff -->
<g id="node2" class="node"><title>global_root_ex20_i_Kernels_diff</title>
<polygon fill="none" stroke="#5457b0" points="245.5,-690 88.5,-690 84.5,-686 84.5,-646 241.5,-646 245.5,-650 245.5,-690"/>
<polyline fill="none" stroke="#5457b0" points="241.5,-686 84.5,-686 "/>
<polyline fill="none" stroke="#5457b0" points="241.5,-686 241.5,-646 "/>
<polyline fill="none" stroke="#5457b0" points="241.5,-686 245.5,-690 "/>
<polygon fill="#cccccc" stroke="none" points="93,-668 93,-686 238,-686 238,-668 93,-668"/>
<text text-anchor="start" x="93.5799" y="-673.4" font-family="Times,serif" font-weight="bold" font-size="14.00">diff </text>
<text text-anchor="start" x="121.952" y="-673.4" font-family="Times,serif" font-size="14.00">: ExampleDiffusion</text>
<text text-anchor="start" x="113.957" y="-654.4" font-family="Times,serif" font-size="14.00">variable</text>
<text text-anchor="start" x="190.553" y="-654.4" font-family="Times,serif" font-size="14.00">=</text>
<text text-anchor="start" x="220" y="-654.4" font-family="Times,serif" font-size="14.00">u</text>
</g>
<!-- global_root_ex20_i_Kernels_diff&#45;&gt;global_root_ex20_i_Variables_u -->
<g id="edge2" class="edge"><title>global_root_ex20_i_Kernels_diff:variable&#45;&gt;global_root_ex20_i_Variables_u</title>
<path fill="none" stroke="#808080" d="M239,-659C318.688,-659 407.534,-636.796 468.105,-618.146"/>
<polygon fill="#808080" stroke="#808080" points="469.452,-621.392 477.952,-615.069 467.363,-614.711 469.452,-621.392"/>
</g>
<!-- global_root_ex20_i_Kernels_td -->
<g id="node3" class="node"><title>global_root_ex20_i_Kernels_td</title>
<polygon fill="none" stroke="#5457b0" points="233.5,-624 100.5,-624 96.5,-620 96.5,-580 229.5,-580 233.5,-584 233.5,-624"/>
<polyline fill="none" stroke="#5457b0" points="229.5,-620 96.5,-620 "/>
<polyline fill="none" stroke="#5457b0" points="229.5,-620 229.5,-580 "/>
<polyline fill="none" stroke="#5457b0" points="229.5,-620 233.5,-624 "/>
<polygon fill="#cccccc" stroke="none" points="105,-602 105,-620 226,-620 226,-602 105,-602"/>
<text text-anchor="start" x="105.633" y="-607.4" font-family="Times,serif" font-weight="bold" font-size="14.00">td </text>
<text text-anchor="start" x="124.684" y="-607.4" font-family="Times,serif" font-size="14.00">: TimeDerivative</text>
<text text-anchor="start" x="119.957" y="-588.4" font-family="Times,serif" font-size="14.00">variable</text>
<text text-anchor="start" x="187.553" y="-588.4" font-family="Times,serif" font-size="14.00">=</text>
<text text-anchor="start" x="211" y="-588.4" font-family="Times,serif" font-size="14.00">u</text>
</g>
<!-- global_root_ex20_i_Kernels_td&#45;&gt;global_root_ex20_i_Variables_u -->
<g id="edge3" class="edge"><title>global_root_ex20_i_Kernels_td:variable&#45;&gt;global_root_ex20_i_Variables_u</title>
<path fill="none" stroke="#808080" d="M227,-593C305.75,-593 395.609,-593 458.964,-593"/>
<polygon fill="#808080" stroke="#808080" points="459.292,-596.5 469.292,-593 459.292,-589.5 459.292,-596.5"/>
</g>
<!-- global_root_ex20_i_Outputs_console -->
<g id="node4" class="node"><title>global_root_ex20_i_Outputs_console</title>
<polygon fill="none" stroke="black" points="306,-531 28,-531 24,-527 24,-469 302,-469 306,-473 306,-531"/>
<polyline fill="none" stroke="black" points="302,-527 24,-527 "/>
<polyline fill="none" stroke="black" points="302,-527 302,-469 "/>
<polyline fill="none" stroke="black" points="302,-527 306,-531 "/>
<polygon fill="#cccccc" stroke="none" points="32,-509 32,-527 298,-527 298,-509 32,-509"/>
<text text-anchor="start" x="110.569" y="-514.4" font-family="Times,serif" font-weight="bold" font-size="14.00">console </text>
<text text-anchor="start" x="161.494" y="-514.4" font-family="Times,serif" font-size="14.00">: Console</text>
<text text-anchor="start" x="32.6094" y="-495.4" font-family="Times,serif" font-size="14.00">output_on</text>
<text text-anchor="start" x="90.5527" y="-495.4" font-family="Times,serif" font-size="14.00">=</text>
<text text-anchor="start" x="99.9484" y="-495.4" font-family="Times,serif" font-size="14.00">timestep_end failed nonlinear linea</text>
<text text-anchor="start" x="37.2868" y="-477.4" font-family="Times,serif" font-size="14.00">perf_log</text>
<text text-anchor="start" x="90.5527" y="-477.4" font-family="Times,serif" font-size="14.00">=</text>
<text text-anchor="start" x="187.617" y="-477.4" font-family="Times,serif" font-size="14.00">true</text>
</g>
<!-- global_root_ex20_i_Mesh -->
<g id="node6" class="node"><title>global_root_ex20_i_Mesh</title>
<polygon fill="none" stroke="black" points="229.5,-216 104.5,-216 100.5,-212 100.5,-154 225.5,-154 229.5,-158 229.5,-216"/>
<polyline fill="none" stroke="black" points="225.5,-212 100.5,-212 "/>
<polyline fill="none" stroke="black" points="225.5,-212 225.5,-154 "/>
<polyline fill="none" stroke="black" points="225.5,-212 229.5,-216 "/>
<polygon fill="#cccccc" stroke="none" points="109,-194 109,-212 222,-212 222,-194 109,-194"/>
<text text-anchor="start" x="145.868" y="-199.4" font-family="Times,serif" font-weight="bold" font-size="14.00">Mesh </text>
<text text-anchor="start" x="109.609" y="-180.4" font-family="Times,serif" font-size="14.00">dim</text>
<text text-anchor="start" x="132.553" y="-180.4" font-family="Times,serif" font-size="14.00">=</text>
<text text-anchor="start" x="178" y="-180.4" font-family="Times,serif" font-size="14.00">2</text>
<text text-anchor="start" x="111.172" y="-162.4" font-family="Times,serif" font-size="14.00">file</text>
<text text-anchor="start" x="132.553" y="-162.4" font-family="Times,serif" font-size="14.00">=</text>
<text text-anchor="start" x="141.655" y="-162.4" font-family="Times,serif" font-size="14.00">two_squares.e</text>
</g>
<!-- global_root_ex20_i_Executioner -->
<g id="node8" class="node"><title>global_root_ex20_i_Executioner</title>
<polygon fill="none" stroke="black" points="308.5,-132 25.5,-132 21.5,-128 21.5,-16 304.5,-16 308.5,-20 308.5,-132"/>
<polyline fill="none" stroke="black" points="304.5,-128 21.5,-128 "/>
<polyline fill="none" stroke="black" points="304.5,-128 304.5,-16 "/>
<polyline fill="none" stroke="black" points="304.5,-128 308.5,-132 "/>
<polygon fill="#cccccc" stroke="none" points="30,-110 30,-128 301,-128 301,-110 30,-110"/>
<text text-anchor="start" x="95.1409" y="-115.4" font-family="Times,serif" font-weight="bold" font-size="14.00">Executioner </text>
<text text-anchor="start" x="170.94" y="-115.4" font-family="Times,serif" font-size="14.00">: Transient</text>
<text text-anchor="start" x="32.845" y="-96.4" font-family="Times,serif" font-size="14.00">petsc_options_value</text>
<text text-anchor="start" x="150.553" y="-96.4" font-family="Times,serif" font-size="14.00">=</text>
<text text-anchor="start" x="178.877" y="-96.4" font-family="Times,serif" font-size="14.00">hypre boomeramg</text>
<text text-anchor="start" x="60.0575" y="-78.4" font-family="Times,serif" font-size="14.00">num_steps</text>
<text text-anchor="start" x="150.553" y="-78.4" font-family="Times,serif" font-size="14.00">=</text>
<text text-anchor="start" x="223" y="-78.4" font-family="Times,serif" font-size="14.00">10</text>
<text text-anchor="start" x="59.6725" y="-60.4" font-family="Times,serif" font-size="14.00">solve_type</text>
<text text-anchor="start" x="150.553" y="-60.4" font-family="Times,serif" font-size="14.00">=</text>
<text text-anchor="start" x="209.388" y="-60.4" font-family="Times,serif" font-size="14.00">PJFNK</text>
<text text-anchor="start" x="84.5547" y="-42.4" font-family="Times,serif" font-size="14.00">dt</text>
<text text-anchor="start" x="150.553" y="-42.4" font-family="Times,serif" font-size="14.00">=</text>
<text text-anchor="start" x="226.5" y="-42.4" font-family="Times,serif" font-size="14.00">1</text>
<text text-anchor="start" x="30.8997" y="-24.4" font-family="Times,serif" font-size="14.00">petsc_options_iname</text>
<text text-anchor="start" x="150.553" y="-24.4" font-family="Times,serif" font-size="14.00">=</text>
<text text-anchor="start" x="159.832" y="-24.4" font-family="Times,serif" font-size="14.00">&#45;pc_type &#45;pc_hypre_type</text>
</g>
<!-- global_root_ex20_i_BCs_bc_left -->
<g id="node9" class="node"><title>global_root_ex20_i_BCs_bc_left</title>
<polygon fill="none" stroke="#ff00b6" points="237.5,-420 96.5,-420 92.5,-416 92.5,-340 233.5,-340 237.5,-344 237.5,-420"/>
<polyline fill="none" stroke="#ff00b6" points="233.5,-416 92.5,-416 "/>
<polyline fill="none" stroke="#ff00b6" points="233.5,-416 233.5,-340 "/>
<polyline fill="none" stroke="#ff00b6" points="233.5,-416 237.5,-420 "/>
<polygon fill="#cccccc" stroke="none" points="101,-398 101,-416 230,-416 230,-398 101,-398"/>
<text text-anchor="start" x="101.743" y="-403.4" font-family="Times,serif" font-weight="bold" font-size="14.00">bc_left </text>
<text text-anchor="start" x="148.774" y="-403.4" font-family="Times,serif" font-size="14.00">: DirichletBC</text>
<text text-anchor="start" x="111.957" y="-384.4" font-family="Times,serif" font-size="14.00">variable</text>
<text text-anchor="start" x="172.053" y="-384.4" font-family="Times,serif" font-size="14.00">=</text>
<text text-anchor="start" x="203.5" y="-384.4" font-family="Times,serif" font-size="14.00">u</text>
<text text-anchor="start" x="108.062" y="-366.4" font-family="Times,serif" font-size="14.00">boundary</text>
<text text-anchor="start" x="172.053" y="-366.4" font-family="Times,serif" font-size="14.00">=</text>
<text text-anchor="start" x="188.344" y="-366.4" font-family="Times,serif" font-size="14.00">leftleft</text>
<text text-anchor="start" x="119.34" y="-348.4" font-family="Times,serif" font-size="14.00">value</text>
<text text-anchor="start" x="172.053" y="-348.4" font-family="Times,serif" font-size="14.00">=</text>
<text text-anchor="start" x="203.5" y="-348.4" font-family="Times,serif" font-size="14.00">0</text>
</g>
<!-- global_root_ex20_i_BCs_bc_left&#45;&gt;global_root_ex20_i_Variables_u -->
<g id="edge5" class="edge"><title>global_root_ex20_i_BCs_bc_left:variable&#45;&gt;global_root_ex20_i_Variables_u</title>
<path fill="none" stroke="#808080" d="M231,-389C355.964,-389 469.522,-506.106 517.223,-562.865"/>
<polygon fill="#808080" stroke="#808080" points="514.703,-565.31 523.777,-570.78 520.095,-560.845 514.703,-565.31"/>
</g>
<!-- global_root_ex20_i_BCs_bc_right -->
<g id="node10" class="node"><title>global_root_ex20_i_BCs_bc_right</title>
<polygon fill="none" stroke="#ff00b6" points="241.5,-318 92.5,-318 88.5,-314 88.5,-238 237.5,-238 241.5,-242 241.5,-318"/>
<polyline fill="none" stroke="#ff00b6" points="237.5,-314 88.5,-314 "/>
<polyline fill="none" stroke="#ff00b6" points="237.5,-314 237.5,-238 "/>
<polyline fill="none" stroke="#ff00b6" points="237.5,-314 241.5,-318 "/>
<polygon fill="#cccccc" stroke="none" points="97,-296 97,-314 234,-314 234,-296 97,-296"/>
<text text-anchor="start" x="97.8499" y="-301.4" font-family="Times,serif" font-weight="bold" font-size="14.00">bc_right </text>
<text text-anchor="start" x="152.667" y="-301.4" font-family="Times,serif" font-size="14.00">: DirichletBC</text>
<text text-anchor="start" x="106.457" y="-282.4" font-family="Times,serif" font-size="14.00">variable</text>
<text text-anchor="start" x="164.053" y="-282.4" font-family="Times,serif" font-size="14.00">=</text>
<text text-anchor="start" x="201" y="-282.4" font-family="Times,serif" font-size="14.00">u</text>
<text text-anchor="start" x="102.562" y="-264.4" font-family="Times,serif" font-size="14.00">boundary</text>
<text text-anchor="start" x="164.053" y="-264.4" font-family="Times,serif" font-size="14.00">=</text>
<text text-anchor="start" x="178.058" y="-264.4" font-family="Times,serif" font-size="14.00">rightright</text>
<text text-anchor="start" x="113.84" y="-246.4" font-family="Times,serif" font-size="14.00">value</text>
<text text-anchor="start" x="164.053" y="-246.4" font-family="Times,serif" font-size="14.00">=</text>
<text text-anchor="start" x="201" y="-246.4" font-family="Times,serif" font-size="14.00">1</text>
</g>
<!-- global_root_ex20_i_BCs_bc_right&#45;&gt;global_root_ex20_i_Variables_u -->
<g id="edge6" class="edge"><title>global_root_ex20_i_BCs_bc_right:variable&#45;&gt;global_root_ex20_i_Variables_u</title>
<path fill="none" stroke="#808080" d="M235,-287C389.184,-287 492.814,-483.649 527.857,-561.659"/>
<polygon fill="#808080" stroke="#808080" points="524.737,-563.257 531.976,-570.993 531.141,-560.431 524.737,-563.257"/>
</g>
</g>
</svg>
