<?xml version="1.0" encoding="UTF-8" standalone="no"?>
<!DOCTYPE svg PUBLIC "-//W3C//DTD SVG 1.1//EN"
 "http://www.w3.org/Graphics/SVG/1.1/DTD/svg11.dtd">
<!-- Generated by graphviz version 2.38.0 (20140413.2041)
 -->
<!-- Title: ex20.i Pages: 1 -->
<svg width="1121pt" height="624pt"
 viewBox="0.00 0.00 1120.50 624.00" xmlns="http://www.w3.org/2000/svg" xmlns:xlink="http://www.w3.org/1999/xlink">
<g id="graph0" class="graph" transform="scale(1 1) rotate(0) translate(0 624)">
<title>ex20.i</title>
<polygon fill="white" stroke="none" points="0,-0 0,-624 1120.5,-624 1120.5,-0 0,-0"/>
<g id="clust1" class="cluster"><title>cluster_ex20_i</title>
<polygon fill="none" stroke="black" points="8,-8 8,-616 1112.5,-616 1112.5,-8 8,-8"/>
</g>
<g id="clust2" class="cluster"><title>cluster_UserObjects</title>
<polygon fill="none" stroke="black" points="480.5,-16 480.5,-152 673.5,-152 673.5,-16 480.5,-16"/>
</g>
<g id="clust3" class="cluster"><title>cluster_Kernels</title>
<polygon fill="none" stroke="black" points="488.5,-160 488.5,-344 665.5,-344 665.5,-160 488.5,-160"/>
</g>
<g id="clust4" class="cluster"><title>cluster_Outputs</title>
<polygon fill="none" stroke="black" points="16,-430 16,-592 314,-592 314,-430 16,-430"/>
</g>
<g id="clust6" class="cluster"><title>cluster_Materials</title>
<polygon fill="none" stroke="black" points="837.5,-16 837.5,-152 1104.5,-152 1104.5,-16 837.5,-16"/>
</g>
<g id="clust7" class="cluster"><title>cluster_BCs</title>
<polygon fill="none" stroke="black" points="492.5,-352 492.5,-608 661.5,-608 661.5,-352 492.5,-352"/>
</g>
<g id="clust5" class="cluster"><title>cluster_Variables</title>
<polygon fill="none" stroke="black" points="84.5,-288 84.5,-406 245.5,-406 245.5,-288 84.5,-288"/>
</g>
<!-- global_root_ex20_i -->
<g id="node1" class="node"><title>global_root_ex20_i</title>
<polygon fill="gray" stroke="none" points="141,-247 141,-265 189,-265 189,-247 141,-247"/>
<text text-anchor="start" x="141.867" y="-252.4" font-family="Times,serif" font-weight="bold" font-size="14.00">ex20_i </text>
</g>
<!-- global_root_ex20_i_UserObjects -->
<g id="node2" class="node"><title>global_root_ex20_i_UserObjects</title>
<polygon fill="gray" stroke="none" points="537,-117 537,-135 618,-135 618,-117 537,-117"/>
<text text-anchor="start" x="538.826" y="-122.4" font-family="Times,serif" font-weight="bold" font-size="14.00">UserObjects </text>
</g>
<!-- global_root_ex20_i_UserObjects_bav -->
<g id="node3" class="node"><title>global_root_ex20_i_UserObjects_bav</title>
<polygon fill="none" stroke="black" points="665.5,-86 492.5,-86 488.5,-82 488.5,-24 661.5,-24 665.5,-28 665.5,-86"/>
<polyline fill="none" stroke="black" points="661.5,-82 488.5,-82 "/>
<polyline fill="none" stroke="black" points="661.5,-82 661.5,-24 "/>
<polyline fill="none" stroke="black" points="661.5,-82 665.5,-86 "/>
<polygon fill="gray" stroke="none" points="497,-64 497,-82 658,-82 658,-64 497,-64"/>
<text text-anchor="start" x="500.147" y="-69.4" font-family="Times,serif" font-weight="bold" font-size="14.00">bav </text>
<text text-anchor="start" x="528.522" y="-69.4" font-family="Times,serif" font-size="14.00">: BlockAverageValue</text>
<text text-anchor="start" x="506.957" y="-50.4" font-family="Times,serif" font-size="14.00">variable</text>
<text text-anchor="start" x="562.553" y="-50.4" font-family="Times,serif" font-size="14.00">=</text>
<text text-anchor="start" x="611" y="-50.4" font-family="Times,serif" font-size="14.00">u</text>
<text text-anchor="start" x="497.625" y="-32.4" font-family="Times,serif" font-size="14.00">execute_on</text>
<text text-anchor="start" x="562.553" y="-32.4" font-family="Times,serif" font-size="14.00">=</text>
<text text-anchor="start" x="571.729" y="-32.4" font-family="Times,serif" font-size="14.00">timestep_begin</text>
</g>
<!-- global_root_ex20_i_Materials_badm -->
<g id="node13" class="node"><title>global_root_ex20_i_Materials_badm</title>
<polygon fill="none" stroke="black" points="1096.5,-86 849.5,-86 845.5,-82 845.5,-24 1092.5,-24 1096.5,-28 1096.5,-86"/>
<polyline fill="none" stroke="black" points="1092.5,-82 845.5,-82 "/>
<polyline fill="none" stroke="black" points="1092.5,-82 1092.5,-24 "/>
<polyline fill="none" stroke="black" points="1092.5,-82 1096.5,-86 "/>
<polygon fill="gray" stroke="none" points="854,-64 854,-82 1089,-82 1089,-64 854,-64"/>
<text text-anchor="start" x="854.878" y="-69.4" font-family="Times,serif" font-weight="bold" font-size="14.00">badm </text>
<text text-anchor="start" x="894.144" y="-69.4" font-family="Times,serif" font-size="14.00">: BlockAverageDiffusionMaterial</text>
<text text-anchor="start" x="861.923" y="-50.4" font-family="Times,serif" font-size="14.00">block_average_userobject</text>
<text text-anchor="start" x="1020.05" y="-50.4" font-family="Times,serif" font-size="14.00">=</text>
<text text-anchor="start" x="1050.39" y="-50.4" font-family="Times,serif" font-size="14.00">bav</text>
<text text-anchor="start" x="919.447" y="-32.4" font-family="Times,serif" font-size="14.00">block</text>
<text text-anchor="start" x="1020.05" y="-32.4" font-family="Times,serif" font-size="14.00">=</text>
<text text-anchor="start" x="1036.2" y="-32.4" font-family="Times,serif" font-size="14.00">left right</text>
</g>
<!-- global_root_ex20_i_UserObjects_bav&#45;&gt;global_root_ex20_i_Materials_badm -->
<g id="edge4" class="edge"><title>global_root_ex20_i_UserObjects_bav&#45;&gt;global_root_ex20_i_Materials_badm:block_average_userobject</title>
<path fill="none" stroke="#808080" d="M665.624,-55C716.689,-55 782.655,-55 842.651,-55"/>
<polygon fill="#808080" stroke="#808080" points="843,-58.5001 853,-55 843,-51.5001 843,-58.5001"/>
</g>
<!-- global_root_ex20_i_Kernels -->
<g id="node4" class="node"><title>global_root_ex20_i_Kernels</title>
<polygon fill="gray" stroke="none" points="550,-309 550,-327 604,-327 604,-309 550,-309"/>
<text text-anchor="start" x="551.154" y="-314.4" font-family="Times,serif" font-weight="bold" font-size="14.00">Kernels </text>
</g>
<!-- global_root_ex20_i_Kernels_diff -->
<g id="node5" class="node"><title>global_root_ex20_i_Kernels_diff</title>
<polygon fill="none" stroke="black" points="657.5,-278 500.5,-278 496.5,-274 496.5,-234 653.5,-234 657.5,-238 657.5,-278"/>
<polyline fill="none" stroke="black" points="653.5,-274 496.5,-274 "/>
<polyline fill="none" stroke="black" points="653.5,-274 653.5,-234 "/>
<polyline fill="none" stroke="black" points="653.5,-274 657.5,-278 "/>
<polygon fill="gray" stroke="none" points="505,-256 505,-274 650,-274 650,-256 505,-256"/>
<text text-anchor="start" x="505.58" y="-261.4" font-family="Times,serif" font-weight="bold" font-size="14.00">diff </text>
<text text-anchor="start" x="533.952" y="-261.4" font-family="Times,serif" font-size="14.00">: ExampleDiffusion</text>
<text text-anchor="start" x="525.957" y="-242.4" font-family="Times,serif" font-size="14.00">variable</text>
<text text-anchor="start" x="602.553" y="-242.4" font-family="Times,serif" font-size="14.00">=</text>
<text text-anchor="start" x="632" y="-242.4" font-family="Times,serif" font-size="14.00">u</text>
</g>
<!-- global_root_ex20_i_Kernels_td -->
<g id="node6" class="node"><title>global_root_ex20_i_Kernels_td</title>
<polygon fill="none" stroke="black" points="645.5,-212 512.5,-212 508.5,-208 508.5,-168 641.5,-168 645.5,-172 645.5,-212"/>
<polyline fill="none" stroke="black" points="641.5,-208 508.5,-208 "/>
<polyline fill="none" stroke="black" points="641.5,-208 641.5,-168 "/>
<polyline fill="none" stroke="black" points="641.5,-208 645.5,-212 "/>
<polygon fill="gray" stroke="none" points="517,-190 517,-208 638,-208 638,-190 517,-190"/>
<text text-anchor="start" x="517.633" y="-195.4" font-family="Times,serif" font-weight="bold" font-size="14.00">td </text>
<text text-anchor="start" x="536.684" y="-195.4" font-family="Times,serif" font-size="14.00">: TimeDerivative</text>
<text text-anchor="start" x="531.957" y="-176.4" font-family="Times,serif" font-size="14.00">variable</text>
<text text-anchor="start" x="599.553" y="-176.4" font-family="Times,serif" font-size="14.00">=</text>
<text text-anchor="start" x="623" y="-176.4" font-family="Times,serif" font-size="14.00">u</text>
</g>
<!-- global_root_ex20_i_Outputs -->
<g id="node7" class="node"><title>global_root_ex20_i_Outputs</title>
<polygon fill="gray" stroke="none" points="76,-562 76,-580 255,-580 255,-562 76,-562"/>
<text text-anchor="start" x="139.254" y="-567.4" font-family="Times,serif" font-weight="bold" font-size="14.00">Outputs </text>
<text text-anchor="start" x="76.6094" y="-548.4" font-family="Times,serif" font-size="14.00">output_on</text>
<text text-anchor="start" x="134.553" y="-548.4" font-family="Times,serif" font-size="14.00">=</text>
<text text-anchor="start" x="143.591" y="-548.4" font-family="Times,serif" font-size="14.00">initial timestep_end</text>
<text text-anchor="start" x="85.1704" y="-530.4" font-family="Times,serif" font-size="14.00">exodus</text>
<text text-anchor="start" x="134.553" y="-530.4" font-family="Times,serif" font-size="14.00">=</text>
<text text-anchor="start" x="188.117" y="-530.4" font-family="Times,serif" font-size="14.00">true</text>
</g>
<!-- global_root_ex20_i_Outputs_console -->
<g id="node8" class="node"><title>global_root_ex20_i_Outputs_console</title>
<polygon fill="none" stroke="black" points="306,-500 28,-500 24,-496 24,-438 302,-438 306,-442 306,-500"/>
<polyline fill="none" stroke="black" points="302,-496 24,-496 "/>
<polyline fill="none" stroke="black" points="302,-496 302,-438 "/>
<polyline fill="none" stroke="black" points="302,-496 306,-500 "/>
<polygon fill="gray" stroke="none" points="32,-478 32,-496 298,-496 298,-478 32,-478"/>
<text text-anchor="start" x="110.569" y="-483.4" font-family="Times,serif" font-weight="bold" font-size="14.00">console </text>
<text text-anchor="start" x="161.494" y="-483.4" font-family="Times,serif" font-size="14.00">: Console</text>
<text text-anchor="start" x="32.6094" y="-464.4" font-family="Times,serif" font-size="14.00">output_on</text>
<text text-anchor="start" x="90.5527" y="-464.4" font-family="Times,serif" font-size="14.00">=</text>
<text text-anchor="start" x="99.9484" y="-464.4" font-family="Times,serif" font-size="14.00">timestep_end failed nonlinear linea</text>
<text text-anchor="start" x="37.2868" y="-446.4" font-family="Times,serif" font-size="14.00">perf_log</text>
<text text-anchor="start" x="90.5527" y="-446.4" font-family="Times,serif" font-size="14.00">=</text>
<text text-anchor="start" x="187.617" y="-446.4" font-family="Times,serif" font-size="14.00">true</text>
</g>
<!-- global_root_ex20_i_Variables -->
<g id="node9" class="node"><title>global_root_ex20_i_Variables</title>
<polygon fill="gray" stroke="none" points="134,-371 134,-389 197,-389 197,-371 134,-371"/>
<text text-anchor="start" x="134.601" y="-376.4" font-family="Times,serif" font-weight="bold" font-size="14.00">Variables </text>
</g>
<!-- global_root_ex20_i_Variables_u -->
<g id="node10" class="node"><title>global_root_ex20_i_Variables_u</title>
<polygon fill="none" stroke="black" points="237.5,-340 96.5,-340 92.5,-336 92.5,-296 233.5,-296 237.5,-300 237.5,-340"/>
<polyline fill="none" stroke="black" points="233.5,-336 92.5,-336 "/>
<polyline fill="none" stroke="black" points="233.5,-336 233.5,-296 "/>
<polyline fill="none" stroke="black" points="233.5,-336 237.5,-340 "/>
<polygon fill="gray" stroke="none" points="101,-318 101,-336 230,-336 230,-318 101,-318"/>
<text text-anchor="start" x="157.92" y="-323.4" font-family="Times,serif" font-weight="bold" font-size="14.00">u </text>
<text text-anchor="start" x="101.723" y="-304.4" font-family="Times,serif" font-size="14.00">initial_condition</text>
<text text-anchor="start" x="195.553" y="-304.4" font-family="Times,serif" font-size="14.00">=</text>
<text text-anchor="start" x="204.75" y="-304.4" font-family="Times,serif" font-size="14.00">0.01</text>
</g>
<!-- global_root_ex20_i_Variables_u&#45;&gt;global_root_ex20_i_UserObjects_bav -->
<g id="edge1" class="edge"><title>global_root_ex20_i_Variables_u&#45;&gt;global_root_ex20_i_UserObjects_bav:variable</title>
<path fill="none" stroke="#808080" d="M237.532,-316.068C263.126,-312.722 291.244,-305.793 314,-292 424.58,-224.975 366.463,-63.7988 485.899,-55.3458"/>
<polygon fill="#808080" stroke="#808080" points="486.126,-58.8402 496,-55 485.886,-51.8443 486.126,-58.8402"/>
</g>
<!-- global_root_ex20_i_Variables_u&#45;&gt;global_root_ex20_i_Kernels_diff -->
<g id="edge2" class="edge"><title>global_root_ex20_i_Variables_u&#45;&gt;global_root_ex20_i_Kernels_diff:variable</title>
<path fill="none" stroke="#808080" d="M237.675,-306.28C261.965,-302.077 289.215,-297.107 314,-292 395.508,-275.203 415.612,-249.238 493.659,-247.136"/>
<polygon fill="#808080" stroke="#808080" points="494.047,-250.631 504,-247 493.955,-243.632 494.047,-250.631"/>
</g>
<!-- global_root_ex20_i_Variables_u&#45;&gt;global_root_ex20_i_Kernels_td -->
<g id="edge3" class="edge"><title>global_root_ex20_i_Variables_u&#45;&gt;global_root_ex20_i_Kernels_td:variable</title>
<path fill="none" stroke="#808080" d="M237.602,-310.266C262.261,-306.339 289.759,-300.525 314,-292 407.334,-259.175 413.251,-186.214 505.837,-181.265"/>
<polygon fill="#808080" stroke="#808080" points="506.095,-184.76 516,-181 505.912,-177.762 506.095,-184.76"/>
</g>
<!-- global_root_ex20_i_BCs_bc_left -->
<g id="node16" class="node"><title>global_root_ex20_i_BCs_bc_left</title>
<polygon fill="none" stroke="black" points="649.5,-542 508.5,-542 504.5,-538 504.5,-462 645.5,-462 649.5,-466 649.5,-542"/>
<polyline fill="none" stroke="black" points="645.5,-538 504.5,-538 "/>
<polyline fill="none" stroke="black" points="645.5,-538 645.5,-462 "/>
<polyline fill="none" stroke="black" points="645.5,-538 649.5,-542 "/>
<polygon fill="gray" stroke="none" points="513,-520 513,-538 642,-538 642,-520 513,-520"/>
<text text-anchor="start" x="513.743" y="-525.4" font-family="Times,serif" font-weight="bold" font-size="14.00">bc_left </text>
<text text-anchor="start" x="560.774" y="-525.4" font-family="Times,serif" font-size="14.00">: DirichletBC</text>
<text text-anchor="start" x="523.957" y="-506.4" font-family="Times,serif" font-size="14.00">variable</text>
<text text-anchor="start" x="584.053" y="-506.4" font-family="Times,serif" font-size="14.00">=</text>
<text text-anchor="start" x="615.5" y="-506.4" font-family="Times,serif" font-size="14.00">u</text>
<text text-anchor="start" x="520.062" y="-488.4" font-family="Times,serif" font-size="14.00">boundary</text>
<text text-anchor="start" x="584.053" y="-488.4" font-family="Times,serif" font-size="14.00">=</text>
<text text-anchor="start" x="600.344" y="-488.4" font-family="Times,serif" font-size="14.00">leftleft</text>
<text text-anchor="start" x="531.34" y="-470.4" font-family="Times,serif" font-size="14.00">value</text>
<text text-anchor="start" x="584.053" y="-470.4" font-family="Times,serif" font-size="14.00">=</text>
<text text-anchor="start" x="615.5" y="-470.4" font-family="Times,serif" font-size="14.00">0</text>
</g>
<!-- global_root_ex20_i_Variables_u&#45;&gt;global_root_ex20_i_BCs_bc_left -->
<g id="edge5" class="edge"><title>global_root_ex20_i_Variables_u&#45;&gt;global_root_ex20_i_BCs_bc_left:variable</title>
<path fill="none" stroke="#808080" d="M237.856,-327.159C262.798,-332.099 290.408,-339.618 314,-351 412.716,-398.627 399.808,-504.133 501.767,-510.681"/>
<polygon fill="#808080" stroke="#808080" points="501.896,-514.186 512,-511 502.114,-507.19 501.896,-514.186"/>
</g>
<!-- global_root_ex20_i_BCs_bc_right -->
<g id="node17" class="node"><title>global_root_ex20_i_BCs_bc_right</title>
<polygon fill="none" stroke="black" points="653.5,-440 504.5,-440 500.5,-436 500.5,-360 649.5,-360 653.5,-364 653.5,-440"/>
<polyline fill="none" stroke="black" points="649.5,-436 500.5,-436 "/>
<polyline fill="none" stroke="black" points="649.5,-436 649.5,-360 "/>
<polyline fill="none" stroke="black" points="649.5,-436 653.5,-440 "/>
<polygon fill="gray" stroke="none" points="509,-418 509,-436 646,-436 646,-418 509,-418"/>
<text text-anchor="start" x="509.85" y="-423.4" font-family="Times,serif" font-weight="bold" font-size="14.00">bc_right </text>
<text text-anchor="start" x="564.667" y="-423.4" font-family="Times,serif" font-size="14.00">: DirichletBC</text>
<text text-anchor="start" x="518.457" y="-404.4" font-family="Times,serif" font-size="14.00">variable</text>
<text text-anchor="start" x="576.053" y="-404.4" font-family="Times,serif" font-size="14.00">=</text>
<text text-anchor="start" x="613" y="-404.4" font-family="Times,serif" font-size="14.00">u</text>
<text text-anchor="start" x="514.562" y="-386.4" font-family="Times,serif" font-size="14.00">boundary</text>
<text text-anchor="start" x="576.053" y="-386.4" font-family="Times,serif" font-size="14.00">=</text>
<text text-anchor="start" x="590.058" y="-386.4" font-family="Times,serif" font-size="14.00">rightright</text>
<text text-anchor="start" x="525.84" y="-368.4" font-family="Times,serif" font-size="14.00">value</text>
<text text-anchor="start" x="576.053" y="-368.4" font-family="Times,serif" font-size="14.00">=</text>
<text text-anchor="start" x="613" y="-368.4" font-family="Times,serif" font-size="14.00">1</text>
</g>
<!-- global_root_ex20_i_Variables_u&#45;&gt;global_root_ex20_i_BCs_bc_right -->
<g id="edge6" class="edge"><title>global_root_ex20_i_Variables_u&#45;&gt;global_root_ex20_i_BCs_bc_right:variable</title>
<path fill="none" stroke="#808080" d="M237.761,-332.924C262.057,-338.263 289.29,-344.56 314,-351 397.683,-372.809 416.578,-406.261 497.78,-408.841"/>
<polygon fill="#808080" stroke="#808080" points="497.947,-412.344 508,-409 498.056,-405.345 497.947,-412.344"/>
</g>
<!-- global_root_ex20_i_Mesh -->
<g id="node11" class="node"><title>global_root_ex20_i_Mesh</title>
<polygon fill="none" stroke="black" points="229.5,-216 104.5,-216 100.5,-212 100.5,-154 225.5,-154 229.5,-158 229.5,-216"/>
<polyline fill="none" stroke="black" points="225.5,-212 100.5,-212 "/>
<polyline fill="none" stroke="black" points="225.5,-212 225.5,-154 "/>
<polyline fill="none" stroke="black" points="225.5,-212 229.5,-216 "/>
<polygon fill="gray" stroke="none" points="109,-194 109,-212 222,-212 222,-194 109,-194"/>
<text text-anchor="start" x="145.868" y="-199.4" font-family="Times,serif" font-weight="bold" font-size="14.00">Mesh </text>
<text text-anchor="start" x="109.609" y="-180.4" font-family="Times,serif" font-size="14.00">dim</text>
<text text-anchor="start" x="132.553" y="-180.4" font-family="Times,serif" font-size="14.00">=</text>
<text text-anchor="start" x="178" y="-180.4" font-family="Times,serif" font-size="14.00">2</text>
<text text-anchor="start" x="111.172" y="-162.4" font-family="Times,serif" font-size="14.00">file</text>
<text text-anchor="start" x="132.553" y="-162.4" font-family="Times,serif" font-size="14.00">=</text>
<text text-anchor="start" x="141.655" y="-162.4" font-family="Times,serif" font-size="14.00">two_squares.e</text>
</g>
<!-- global_root_ex20_i_Materials -->
<g id="node12" class="node"><title>global_root_ex20_i_Materials</title>
<polygon fill="gray" stroke="none" points="940,-117 940,-135 1003,-135 1003,-117 940,-117"/>
<text text-anchor="start" x="940.987" y="-122.4" font-family="Times,serif" font-weight="bold" font-size="14.00">Materials </text>
</g>
<!-- global_root_ex20_i_Executioner -->
<g id="node14" class="node"><title>global_root_ex20_i_Executioner</title>
<polygon fill="none" stroke="black" points="308.5,-132 25.5,-132 21.5,-128 21.5,-16 304.5,-16 308.5,-20 308.5,-132"/>
<polyline fill="none" stroke="black" points="304.5,-128 21.5,-128 "/>
<polyline fill="none" stroke="black" points="304.5,-128 304.5,-16 "/>
<polyline fill="none" stroke="black" points="304.5,-128 308.5,-132 "/>
<polygon fill="gray" stroke="none" points="30,-110 30,-128 301,-128 301,-110 30,-110"/>
<text text-anchor="start" x="95.1409" y="-115.4" font-family="Times,serif" font-weight="bold" font-size="14.00">Executioner </text>
<text text-anchor="start" x="170.94" y="-115.4" font-family="Times,serif" font-size="14.00">: Transient</text>
<text text-anchor="start" x="32.845" y="-96.4" font-family="Times,serif" font-size="14.00">petsc_options_value</text>
<text text-anchor="start" x="150.553" y="-96.4" font-family="Times,serif" font-size="14.00">=</text>
<text text-anchor="start" x="178.877" y="-96.4" font-family="Times,serif" font-size="14.00">hypre boomeramg</text>
<text text-anchor="start" x="60.0575" y="-78.4" font-family="Times,serif" font-size="14.00">num_steps</text>
<text text-anchor="start" x="150.553" y="-78.4" font-family="Times,serif" font-size="14.00">=</text>
<text text-anchor="start" x="223" y="-78.4" font-family="Times,serif" font-size="14.00">10</text>
<text text-anchor="start" x="59.6725" y="-60.4" font-family="Times,serif" font-size="14.00">solve_type</text>
<text text-anchor="start" x="150.553" y="-60.4" font-family="Times,serif" font-size="14.00">=</text>
<text text-anchor="start" x="209.388" y="-60.4" font-family="Times,serif" font-size="14.00">PJFNK</text>
<text text-anchor="start" x="84.5547" y="-42.4" font-family="Times,serif" font-size="14.00">dt</text>
<text text-anchor="start" x="150.553" y="-42.4" font-family="Times,serif" font-size="14.00">=</text>
<text text-anchor="start" x="226.5" y="-42.4" font-family="Times,serif" font-size="14.00">1</text>
<text text-anchor="start" x="30.8997" y="-24.4" font-family="Times,serif" font-size="14.00">petsc_options_iname</text>
<text text-anchor="start" x="150.553" y="-24.4" font-family="Times,serif" font-size="14.00">=</text>
<text text-anchor="start" x="159.832" y="-24.4" font-family="Times,serif" font-size="14.00">&#45;pc_type &#45;pc_hypre_type</text>
</g>
<!-- global_root_ex20_i_BCs -->
<g id="node15" class="node"><title>global_root_ex20_i_BCs</title>
<polygon fill="gray" stroke="none" points="559,-573 559,-591 595,-591 595,-573 559,-573"/>
<text text-anchor="start" x="560.861" y="-578.4" font-family="Times,serif" font-weight="bold" font-size="14.00">BCs </text>
</g>
</g>
</svg>
